<svg width="5194" height="5201" viewBox="0 0 5194 5201" fill="none" xmlns="http://www.w3.org/2000/svg">
<circle cx="2597" cy="2597" r="2597" fill="#378FC1"/>
<path d="M1071 1573.5C691.547 1344.23 694.491 931.69 765.692 748.789C765.9 748.254 766.223 747.785 766.636 747.386C1828.53 -278.301 3167.1 -29.2816 3681.5 228C3762.17 275.834 4020.6 396.6 4121 497C4246.5 622.5 3923.5 856 3842.5 963.5C3761.5 1071 3331.5 1071 3161 1062C2990.5 1053 2838 1286.5 2838 1528.5C2838 1683.73 2911.08 1707.25 2969.34 1695.1C2974.09 1694.11 2977.29 1700.54 2972.86 1702.5C2903.02 1733.44 2790.38 1726.38 2712.5 1528.5C2596 1232.5 3197 981.5 2578 856C1959 730.5 2300 1780 2317.5 1869.5C2331.48 1940.99 2615.81 2132.09 2756.86 2219.11C2757.3 2219.37 2757.64 2219.69 2757.94 2220.1C2877.78 2381.58 3191.77 2683.7 3493 2605C3870 2506.5 4085 3125.5 4049 3188C4013 3250.5 3977.5 3538 3923.5 3807C3869.5 4076 3448 4632.5 3331.5 4587.5C3215 4542.5 3645.5 4121 3582.5 3807C3519.5 3493 3331.5 3654.5 3008.5 3538C2685.5 3421.5 2757.5 3349.5 2488 3188C2218.5 3026.5 2371.5 2650 2488 2650C2604.5 2650 2811 2506.5 2578 2219.5C2345 1932.5 1546 1860.5 1071 1573.5Z" fill="#296B00" stroke="black"/>
<path d="M1536.1 3467.5C1246.01 3433.93 920.113 2908.26 792.999 2648.8C792.731 2648.26 792.611 2647.69 792.584 2647.09C791.809 2629.81 769.055 2597 682.605 2597C572.605 2597 564.605 3002.5 522.105 3197C479.605 3391.5 885.605 3813.5 995.105 4109.5C1104.6 4405.5 2068.1 4379.5 2245.6 4379.5C2423.1 4379.5 2321.6 4227.5 1992.1 3856C1662.6 3484.5 1899.1 3509.5 1536.1 3467.5Z" fill="#2E7A00"/>
<path d="M3699.94 1647C3507.1 1646.55 4043.42 1582.03 4164.5 1590C4191.5 1590 4245.5 1564.1 4245.5 1460.5C4245.5 1331 4456.5 1233 4416 1330.5C4375.5 1428 4546 1590 4667.5 1785C4789 1980 4813.5 2142 4813.5 2450.5C4813.5 2759 4310.5 2969.5 4416 2783C4521.5 2596.5 4294.5 2410 4310.5 2336.5C4326.5 2263 4351 2085 4245.5 2028.5C4140.46 1972.24 3834.68 1682.04 3703.71 1647.44C3702.52 1647.12 3701.17 1647 3699.94 1647Z" fill="#2E7A00"/>
<path d="M2110.5 4801.5C1614.35 4609.56 1363 4734.08 1289.22 4830.46C1284.1 4837.15 1286.62 4846.62 1293.9 4850.87C2343.73 5463.63 3410.39 5137.93 3862.26 4873.14C3875.62 4865.31 3869.19 4845.77 3853.74 4846.84C3672.08 4859.41 3363.79 4884.84 3233 4911C3050.5 4947.5 2758 5052 2110.5 4801.5Z" fill="#296B00"/>
</svg>
