<svg width="69" height="84" viewBox="0 0 69 84" fill="none" xmlns="http://www.w3.org/2000/svg">
<path d="M13.9729 18.2879C2.94763 26.0556 -0.163785 36.7453 0.00655214 44.0674C0.121082 48.9905 4.09858 52.454 8.80499 53.9031C18.6066 56.9211 34.2055 59.6242 52.0889 57.6254C61.7438 56.5463 67.7506 47.6363 64.675 38.4209C64.5717 38.1114 64.4699 37.8134 64.3701 37.5287C62.2387 31.4448 60.07 29.6356 59.666 25.2257C59.3772 22.0727 61.1858 14.7417 64.3701 10.6889C68.3505 5.623 62.3614 4.53744 61.0137 8.15597C59.666 11.7745 55.8245 20.3148 53.7766 19.0116C49.7962 16.4786 32.4273 10.3271 22.6573 14.6693C12.8872 19.0116 12.1195 6.03754 13.9728 3.81372C15.7821 1.64261 11.078 -1.97592 9.99241 3.81373C8.90685 9.60338 11.0781 14.6693 13.9729 18.2879Z" fill="#3CCD95"/>
<mask id="mask0" mask-type="alpha" maskUnits="userSpaceOnUse" x="0" y="0" width="66" height="59">
<path d="M13.9729 18.2879C2.94763 26.0556 -0.163785 36.7453 0.00655206 44.0674C0.121081 48.9905 4.09858 52.454 8.80499 53.9031C18.6066 56.9211 34.2055 59.6242 52.0889 57.6254C61.7438 56.5463 67.7506 47.6363 64.675 38.4209C64.5717 38.1114 64.4699 37.8134 64.3701 37.5287C62.2387 31.4448 60.07 29.6356 59.666 25.2257C59.3772 22.0727 61.1858 14.7417 64.3701 10.6889C68.3505 5.623 62.3614 4.53744 61.0137 8.15597C59.666 11.7745 55.8245 20.3148 53.7766 19.0116C49.7962 16.4786 32.4273 10.3271 22.6573 14.6693C12.8872 19.0116 12.1195 6.03754 13.9728 3.81372C15.7821 1.64261 11.078 -1.97592 9.99241 3.81373C8.90685 9.60338 11.0781 14.6693 13.9729 18.2879Z" fill="#3CCD95"/>
</mask>
<g mask="url(#mask0)">
<ellipse cx="19.5354" cy="29.4112" rx="2.17112" ry="5.06594" transform="rotate(7.54995 19.5354 29.4112)" fill="#EAEAEA"/>
<ellipse cx="43.4178" cy="30.8586" rx="2.17112" ry="5.06594" transform="rotate(7.54995 43.4178 30.8586)" fill="#EAEAEA"/>
<path d="M9.73041 54.1739V45.4895C9.60979 44.5245 8.64481 44.4039 11.1778 42.5946C15.8819 39.2347 13.3489 44.8974 14.4345 45.4895C18.4149 47.6605 14.8585 48.5991 14.4345 49.0939L14.3198 49.7454L13.3489 55.2595L9.73041 54.1739Z" fill="#28EEA2"/>
<path d="M46.2775 45.4895C47.4355 46.9369 46.76 54.5358 46.2775 58.1543H42.659V49.0939C42.7059 49.0939 42.7507 49.094 42.7933 49.0942C42.0412 49.0006 40.9115 48.7285 40.4879 48.0224C39.4023 46.2131 41.9353 45.4895 42.659 42.5946C43.3827 39.6998 44.8301 43.6802 46.2775 45.4895Z" fill="#28EEA2"/>
<path d="M37.8699 37.7324C38.2317 38.818 33.6126 44.042 29.9941 44.042C27.1963 44.042 23.3958 39.8172 23.3958 38.818C23.3958 37.8187 27.1113 39.9035 29.9091 39.9035C32.707 39.9035 37.8699 36.7332 37.8699 37.7324Z" fill="black"/>
</g>
<path d="M2.71529 78.3127V65.2727H7.19529C7.91529 65.2727 8.58863 65.346 9.21529 65.4927C9.84196 65.626 10.3886 65.8593 10.8553 66.1927C11.322 66.5127 11.6886 66.946 11.9553 67.4927C12.2353 68.026 12.3753 68.686 12.3753 69.4727C12.3753 70.2327 12.2353 70.8927 11.9553 71.4527C11.6886 72.0127 11.322 72.4727 10.8553 72.8327C10.3886 73.1927 9.84863 73.4593 9.23529 73.6327C8.62196 73.806 7.96863 73.8927 7.27529 73.8927H5.65529V78.3127H2.71529ZM5.65529 71.5527H7.09529C8.69529 71.5527 9.49529 70.8593 9.49529 69.4727C9.49529 68.7927 9.28196 68.3127 8.85529 68.0327C8.42863 67.7527 7.81529 67.6127 7.01529 67.6127H5.65529V71.5527ZM14.3894 78.3127V64.2927H17.3294V67.7327L17.1894 69.5127C17.5627 69.1793 17.996 68.8727 18.4894 68.5927C18.9827 68.2993 19.5694 68.1527 20.2494 68.1527C21.3294 68.1527 22.1094 68.506 22.5894 69.2127C23.0827 69.9193 23.3294 70.8993 23.3294 72.1527V78.3127H20.3894V72.5327C20.3894 71.8127 20.2894 71.3193 20.0894 71.0527C19.9027 70.786 19.596 70.6527 19.1694 70.6527C18.796 70.6527 18.476 70.7393 18.2094 70.9127C17.9427 71.0727 17.6494 71.306 17.3294 71.6127V78.3127H14.3894ZM30.0751 78.5527C29.4485 78.5527 28.8418 78.4393 28.2551 78.2127C27.6685 77.9727 27.1485 77.6327 26.6951 77.1927C26.2551 76.7527 25.9018 76.2127 25.6351 75.5727C25.3685 74.9193 25.2351 74.1793 25.2351 73.3527C25.2351 72.526 25.3685 71.7927 25.6351 71.1527C25.9018 70.4993 26.2551 69.9527 26.6951 69.5127C27.1485 69.0727 27.6685 68.7393 28.2551 68.5127C28.8418 68.2727 29.4485 68.1527 30.0751 68.1527C30.7018 68.1527 31.3018 68.2727 31.8751 68.5127C32.4618 68.7393 32.9751 69.0727 33.4151 69.5127C33.8685 69.9527 34.2285 70.4993 34.4951 71.1527C34.7618 71.7927 34.8951 72.526 34.8951 73.3527C34.8951 74.1793 34.7618 74.9193 34.4951 75.5727C34.2285 76.2127 33.8685 76.7527 33.4151 77.1927C32.9751 77.6327 32.4618 77.9727 31.8751 78.2127C31.3018 78.4393 30.7018 78.5527 30.0751 78.5527ZM30.0751 76.1727C30.6751 76.1727 31.1285 75.9193 31.4351 75.4127C31.7418 74.906 31.8951 74.2193 31.8951 73.3527C31.8951 72.486 31.7418 71.7993 31.4351 71.2927C31.1285 70.786 30.6751 70.5327 30.0751 70.5327C29.4618 70.5327 29.0018 70.786 28.6951 71.2927C28.4018 71.7993 28.2551 72.486 28.2551 73.3527C28.2551 74.2193 28.4018 74.906 28.6951 75.4127C29.0018 75.9193 29.4618 76.1727 30.0751 76.1727ZM42.1089 78.5527C41.6689 78.5527 41.2222 78.446 40.7689 78.2327C40.3289 78.006 39.9156 77.6793 39.5289 77.2527H39.4489L39.2089 78.3127H36.9089V64.2927H39.8489V67.7327L39.7689 69.2527C40.1556 68.906 40.5689 68.6393 41.0089 68.4527C41.4622 68.2527 41.9222 68.1527 42.3889 68.1527C42.9889 68.1527 43.5289 68.2727 44.0089 68.5127C44.4889 68.7527 44.8956 69.0927 45.2289 69.5327C45.5756 69.9593 45.8356 70.486 46.0089 71.1127C46.1956 71.726 46.2889 72.4127 46.2889 73.1727C46.2889 74.026 46.1689 74.786 45.9289 75.4527C45.7022 76.1193 45.3889 76.686 44.9889 77.1527C44.6022 77.606 44.1556 77.9527 43.6489 78.1927C43.1556 78.4327 42.6422 78.5527 42.1089 78.5527ZM41.4289 76.1527C41.9356 76.1527 42.3689 75.926 42.7289 75.4727C43.0889 75.006 43.2689 74.2593 43.2689 73.2327C43.2689 71.446 42.6956 70.5527 41.5489 70.5527C40.9622 70.5527 40.3956 70.8527 39.8489 71.4527V75.5127C40.1156 75.7527 40.3822 75.9193 40.6489 76.0127C40.9156 76.106 41.1756 76.1527 41.4289 76.1527ZM52.6337 78.5527C52.0071 78.5527 51.4004 78.4393 50.8137 78.2127C50.2271 77.9727 49.7071 77.6327 49.2537 77.1927C48.8137 76.7527 48.4604 76.2127 48.1937 75.5727C47.9271 74.9193 47.7937 74.1793 47.7937 73.3527C47.7937 72.526 47.9271 71.7927 48.1937 71.1527C48.4604 70.4993 48.8137 69.9527 49.2537 69.5127C49.7071 69.0727 50.2271 68.7393 50.8137 68.5127C51.4004 68.2727 52.0071 68.1527 52.6337 68.1527C53.2604 68.1527 53.8604 68.2727 54.4337 68.5127C55.0204 68.7393 55.5337 69.0727 55.9737 69.5127C56.4271 69.9527 56.7871 70.4993 57.0537 71.1527C57.3204 71.7927 57.4537 72.526 57.4537 73.3527C57.4537 74.1793 57.3204 74.9193 57.0537 75.5727C56.7871 76.2127 56.4271 76.7527 55.9737 77.1927C55.5337 77.6327 55.0204 77.9727 54.4337 78.2127C53.8604 78.4393 53.2604 78.5527 52.6337 78.5527ZM52.6337 76.1727C53.2337 76.1727 53.6871 75.9193 53.9937 75.4127C54.3004 74.906 54.4537 74.2193 54.4537 73.3527C54.4537 72.486 54.3004 71.7993 53.9937 71.2927C53.6871 70.786 53.2337 70.5327 52.6337 70.5327C52.0204 70.5327 51.5604 70.786 51.2537 71.2927C50.9604 71.7993 50.8137 72.486 50.8137 73.3527C50.8137 74.2193 50.9604 74.906 51.2537 75.4127C51.5604 75.9193 52.0204 76.1727 52.6337 76.1727ZM62.2898 78.5527C61.6365 78.5527 60.9632 78.426 60.2698 78.1727C59.5898 77.9193 58.9965 77.586 58.4898 77.1727L59.8098 75.3327C60.2632 75.6793 60.6965 75.9393 61.1098 76.1127C61.5232 76.286 61.9432 76.3727 62.3698 76.3727C62.8098 76.3727 63.1298 76.2993 63.3298 76.1527C63.5298 76.006 63.6298 75.7993 63.6298 75.5327C63.6298 75.3727 63.5698 75.2327 63.4498 75.1127C63.3432 74.9793 63.1898 74.8593 62.9898 74.7527C62.8032 74.646 62.5898 74.5527 62.3498 74.4727C62.1098 74.3793 61.8632 74.2793 61.6098 74.1727C61.3032 74.0527 60.9965 73.9127 60.6898 73.7527C60.3832 73.5927 60.1032 73.3993 59.8498 73.1727C59.5965 72.9327 59.3898 72.6593 59.2298 72.3527C59.0698 72.0327 58.9898 71.666 58.9898 71.2527C58.9898 70.7993 59.0765 70.3793 59.2498 69.9927C59.4365 69.606 59.6965 69.2793 60.0298 69.0127C60.3632 68.746 60.7632 68.5393 61.2298 68.3927C61.6965 68.2327 62.2165 68.1527 62.7898 68.1527C63.5498 68.1527 64.2165 68.286 64.7898 68.5527C65.3632 68.806 65.8632 69.0927 66.2898 69.4127L64.9698 71.1727C64.6098 70.906 64.2565 70.6993 63.9098 70.5527C63.5632 70.406 63.2165 70.3327 62.8698 70.3327C62.1232 70.3327 61.7498 70.5927 61.7498 71.1127C61.7498 71.2727 61.8032 71.4127 61.9098 71.5327C62.0165 71.6393 62.1565 71.7393 62.3298 71.8327C62.5165 71.926 62.7232 72.0193 62.9498 72.1127C63.1898 72.1927 63.4365 72.2793 63.6898 72.3727C64.0098 72.4927 64.3232 72.6327 64.6298 72.7927C64.9498 72.9393 65.2365 73.126 65.4898 73.3527C65.7565 73.5793 65.9698 73.8593 66.1298 74.1927C66.2898 74.5127 66.3698 74.8993 66.3698 75.3527C66.3698 75.806 66.2832 76.226 66.1098 76.6127C65.9365 76.9993 65.6765 77.3393 65.3298 77.6327C64.9832 77.9127 64.5565 78.1393 64.0498 78.3127C63.5432 78.4727 62.9565 78.5527 62.2898 78.5527Z" fill="white"/>
</svg>
