<svg width="273" height="444" viewBox="0 0 273 444" fill="none" xmlns="http://www.w3.org/2000/svg">
<rect x="134.634" y="79.4627" width="109" height="55" rx="27.5" fill="#A7A7A7"/>
<rect x="132.634" y="124.463" width="109" height="87" rx="10" fill="#9A9A9A"/>
<ellipse cx="96.6338" cy="69.9627" rx="13" ry="22.5" fill="#A7A7A7"/>
<path d="M240.634 65.4627C240.634 101.361 206.831 130.463 165.134 130.463C123.436 130.463 89.6338 101.361 89.6338 65.4627C89.6338 29.5642 123.436 0.462677 165.134 0.462677C206.831 0.462677 240.634 29.5642 240.634 65.4627Z" fill="#C4C4C4"/>
<path d="M240.134 67.4627C239.734 26.2627 151.134 21.6293 107.134 24.4627C100.634 29.4627 77.6337 60.4627 98.6336 95.9627C136.634 122.963 240.634 118.963 240.134 67.4627Z" fill="#121212"/>
<ellipse cx="231.634" cy="71.9627" rx="13" ry="22.5" fill="#A7A7A7"/>
<ellipse cx="237.134" cy="71.9627" rx="6.5" ry="17.5" fill="#C4C4C4"/>
<mask id="mask0" mask-type="alpha" maskUnits="userSpaceOnUse" x="89" y="23" width="152" height="90">
<path d="M240.137 67.4657C239.737 26.2657 151.137 21.6324 107.137 24.4657C100.637 29.4657 77.6372 60.4657 98.6372 95.9657C136.637 122.966 240.637 118.966 240.137 67.4657Z" fill="#CFC1C1" stroke="black"/>
</mask>
<g mask="url(#mask0)">
<path d="M131.372 56.5852C107.742 73.234 108.606 98.9267 113.26 105.55C127.631 112.205 167.514 122.488 212.079 110.384C211.9 104.476 210.219 91.3273 206.171 85.1422C201.19 77.5305 200.116 76.9934 199.189 66.8822C198.761 62.2027 201.445 51.322 206.171 45.307C212.079 37.7882 203.19 36.177 201.19 41.5476C199.189 46.9182 193.488 59.5935 190.449 57.6593C184.541 53.8999 158.762 44.7699 144.261 51.2146C129.761 57.6593 128.621 38.4034 131.372 35.1028C134.057 31.8805 127.076 26.5099 125.464 35.1029C123.853 43.6958 127.076 51.2146 131.372 56.5852Z" fill="#3CCD95"/>
<ellipse cx="139.628" cy="73.0943" rx="3.22235" ry="7.51882" transform="rotate(7.54995 139.628 73.0943)" fill="#EAEAEA"/>
<ellipse cx="175.074" cy="75.2425" rx="3.22235" ry="7.51882" transform="rotate(7.54995 175.074 75.2425)" fill="#EAEAEA"/>
<path d="M125.075 109.847V96.9575C124.896 95.5254 123.464 95.3463 127.224 92.6611C134.205 87.6742 130.446 96.0787 132.057 96.9575C137.965 100.18 132.686 101.573 132.057 102.307L131.887 103.274L130.446 111.458L125.075 109.847Z" fill="#28EEA2"/>
<path d="M179.318 96.9575C181.037 99.1058 180.034 110.384 179.318 115.755H173.948V102.307C174.017 102.307 174.084 102.307 174.147 102.308C173.031 102.169 171.354 101.765 170.725 100.717C169.114 98.0316 172.874 96.9575 173.948 92.6611C175.022 88.3646 177.17 94.2722 179.318 96.9575Z" fill="#28EEA2"/>
<path d="M166.84 85.4446C167.377 87.0558 160.521 94.8093 155.151 94.8093C150.998 94.8093 145.357 88.5388 145.357 87.0558C145.357 85.5727 150.872 88.667 155.024 88.667C159.177 88.667 166.84 83.9616 166.84 85.4446Z" fill="black"/>
</g>
<path d="M127.634 141.463C127.634 147.538 105.634 170.963 74.1337 177.463C70.5438 177.463 74.1337 167.538 74.1337 161.463C106.134 154.463 124.544 122.463 128.134 122.463C131.724 122.463 127.634 135.388 127.634 141.463Z" fill="#A7A7A7"/>
<path d="M73.6335 177.463C50.1335 180.963 35.6337 175.463 23.1337 149.963C21.819 146.622 27.4807 138.688 33.1337 136.463C51.3667 163.676 59.1338 161.463 75.6336 161.463C76.9483 164.803 79.2866 175.238 73.6335 177.463Z" fill="#A7A7A7"/>
<path d="M25.6337 122.963C29.1337 104.963 29.3838 131.463 33.1337 136.463C34.6336 138.463 25.6337 151.463 23.1337 149.963L19.6337 142.963C-17.9663 110.563 7.96704 116.129 25.6337 122.963Z" fill="#3E4076"/>
<path d="M119.634 152.641C119.634 142.187 120.224 131.16 126.059 122.486C134.813 109.47 146.079 115.463 167.134 115.463C188.141 115.463 200.344 110.125 209.233 122.788C215.136 131.197 215.634 142.092 215.634 152.367V240.428C215.634 270.271 194.143 294.463 167.634 294.463C141.124 294.463 119.634 270.271 119.634 240.428V152.641Z" fill="#C4C4C4"/>
<path d="M272.134 176.963C271.134 156.463 250.038 131.963 206.634 124.963C203.044 124.963 200.133 136.463 205.634 142.463C245.634 145.463 255.134 169.463 256.134 180.963C259.724 180.963 272.134 183.038 272.134 176.963Z" fill="#A7A7A7"/>
<path d="M270.634 199.463C271.134 194.963 272.134 187.963 272.134 176.963C268.544 176.963 256.134 174.888 256.134 180.963C257.134 184.463 256.634 191.463 256.134 194.963C260.634 195.963 268.634 195.463 270.634 199.463Z" fill="#A7A7A7"/>
<path d="M270.634 198.963C270.217 195.212 260.134 194.629 256.134 194.463C255.634 197.463 254.417 199.846 253.634 201.463C245.134 213.463 249.134 211.963 253.634 207.963C253.634 244.463 271.134 203.463 270.634 198.963Z" fill="#3E4076"/>
<rect x="129.497" y="147.549" width="65" height="27" rx="5" transform="rotate(3.41888 129.497 147.549)" fill="#A7A7A7"/>
<circle cx="183.623" cy="163.805" r="6" transform="rotate(3.41888 183.623 163.805)" fill="#3E4076"/>
<circle cx="167.652" cy="162.851" r="6" transform="rotate(3.41888 167.652 162.851)" fill="#141740"/>
<circle cx="152.679" cy="161.957" r="6" transform="rotate(3.41888 152.679 161.957)" fill="#3E4076"/>
<circle cx="138.704" cy="161.122" r="6" transform="rotate(3.41888 138.704 161.122)" fill="#141740"/>
<path d="M137.134 281.963C119.634 287.963 78.1339 309.963 64.6338 337.463C59.6632 337.463 54.6337 336.657 54.6337 331.963C77.6337 290.463 123.134 272.963 128.634 271.963C132.134 276.963 133.634 278.963 137.134 281.963Z" fill="#A7A7A7"/>
<path d="M64.6338 337.463C50.1337 368.543 63.6337 389.963 76.1337 410.463C76.1337 410.463 69.1339 419.963 68.6338 415.463C44.1337 384.463 43.8265 351.463 54.6337 331.963C58.1337 336.963 61.1338 334.463 64.6338 337.463Z" fill="#A7A7A7"/>
<path d="M69.1338 415.963C69.6338 412.463 75.6338 408.463 76.6337 411.463C76.6337 411.463 78.6338 414.463 82.6338 420.463C79.6338 424.463 59.6338 437.963 56.6338 434.963C60.6338 423.963 66.6338 420.463 69.1338 415.963Z" fill="#3E4076"/>
<path d="M55.6338 394.526C58.649 395.028 64.6337 392.463 65.6337 391.963C65.6337 391.963 74.1337 406.963 77.6337 412.963C74.6184 416.983 71.7151 419.147 68.6999 416.132C63.1719 408.595 57.1414 399.048 55.6338 394.526Z" fill="#3E4076"/>
<path d="M211.134 420.463C209.922 417.141 211.634 409.963 216.134 412.963C216.134 412.963 219.333 414.698 225.693 418.097C224.937 423.04 213.684 444.385 209.623 443.157C207.954 431.572 211.055 425.61 211.134 420.463Z" fill="#3E4076"/>
<path d="M179.634 398.963C183.134 396.463 183.634 396.963 186.634 391.963C186.634 391.963 207.134 409.963 215.134 412.463C214.379 417.405 214.695 421.69 210.634 420.463C205.134 418.8 182.134 403.463 179.634 398.963Z" fill="#3E4076"/>
<path d="M207.134 270.963C183.634 303.463 169.54 322.822 170.628 353.438C166.246 355.785 160.851 357.601 158.634 353.463C156.134 314.963 186.161 275.948 196.634 265.463C199.161 262.448 207.634 263.463 207.134 270.963Z" fill="#A7A7A7"/>
<path d="M170.628 353.438C170.628 376.463 181.634 387.963 186.634 391.963C186.634 391.963 185.634 396.463 179.634 398.963C169.634 389.463 160.095 375.963 158.634 353.463C164.08 356.217 166.126 352.446 170.628 353.438Z" fill="#A7A7A7"/>
<path d="M215.634 223.463C220.634 239.463 176.634 238.963 176.634 238.963C149.134 237.385 115.134 232.463 119.634 223.463C118.134 210.963 117.634 224.463 171.634 226.463C213.134 228 217.634 205.463 215.634 223.463Z" fill="url(#paint0_linear)"/>
<path d="M234.134 106.963C228.134 136.463 205.634 150.296 193.134 155.463C191.134 155.463 191.134 152.963 191.634 152.463C201.578 148.817 223.09 135.118 230.018 109.399C228.116 108.927 226.649 105.954 229.134 104.463C230.967 103.796 234.534 103.363 234.134 106.963Z" fill="#757575"/>
<defs>
<linearGradient id="paint0_linear" x1="116.634" y1="212.463" x2="227.134" y2="213.463" gradientUnits="userSpaceOnUse">
<stop stop-color="#FF0000"/>
<stop offset="0.489583" stop-color="#000AFF"/>
<stop offset="1" stop-color="#138700"/>
</linearGradient>
</defs>
</svg>
