<svg width="148" height="153" viewBox="0 0 148 153" fill="none" xmlns="http://www.w3.org/2000/svg">
<rect x="100.859" y="43.8417" width="32.405" height="16.3511" rx="1" transform="rotate(40.7128 100.859 43.8417)" fill="#A7A7A7"/>
<rect x="91.6824" y="53.5945" width="32.405" height="25.8645" rx="1" transform="rotate(40.7128 91.6824 53.5945)" fill="#9A9A9A"/>
<ellipse cx="94.1384" cy="34.3321" rx="3.86481" ry="6.6891" transform="rotate(40.7128 94.1384 34.3321)" fill="#A7A7A7"/>
<path d="M127.461 61.2419C120.499 69.3315 107.239 69.3345 97.8427 61.2488C88.4464 53.163 86.4724 40.0503 93.4336 31.9608C100.395 23.8712 113.655 23.8682 123.052 31.9539C132.448 40.0397 134.422 53.1524 127.461 61.2419Z" fill="#C4C4C4"/>
<path d="M126.96 61.5954C134.8 52.3041 116.078 34.2823 105.565 26.2948C105.407 26.1746 105.225 26.1067 105.026 26.1113C102.105 26.1783 91.7482 28.9145 89.5864 40.3664C89.5604 40.5041 89.5633 40.6452 89.5988 40.7808C93.1162 54.2235 117.136 73.2392 126.96 61.5954Z" fill="black" stroke="black"/>
<ellipse cx="124.172" cy="60.9613" rx="3.86481" ry="6.6891" transform="rotate(40.7128 124.172 60.9613)" fill="#A7A7A7"/>
<ellipse cx="125.412" cy="62.028" rx="1.93241" ry="5.20263" transform="rotate(40.7128 125.412 62.028)" fill="#C4C4C4"/>
<mask id="mask0_825_457" style="mask-type:alpha" maskUnits="userSpaceOnUse" x="89" y="25" width="41" height="41">
<path d="M126.961 61.5969C134.8 52.3055 116.078 34.2838 105.565 26.2962C105.407 26.1761 105.225 26.1082 105.027 26.1128C102.105 26.1797 91.7485 28.9159 89.5866 40.3679C89.5606 40.5056 89.5636 40.6467 89.599 40.7823C93.1165 54.225 117.136 73.2407 126.961 61.5969Z" fill="#CFC1C1" stroke="black"/>
</mask>
<g mask="url(#mask0_825_457)">
<path d="M103.498 37.9842C95.8993 37.7297 91.5361 42.8833 91.0257 45.3118C90.9895 45.4839 91.0199 45.6557 91.0953 45.8146C93.1466 50.1387 99.8786 59.6378 111.604 65.4806C112.018 65.687 112.521 65.5751 112.795 65.2022C113.954 63.6231 115.629 60.8886 115.879 58.9938C116.232 56.3125 116.094 55.9832 117.846 53.5251C118.657 52.3875 121.372 50.4561 123.603 50.0171C126.393 49.4683 124.702 47.3816 123.21 48.2039C121.718 49.0263 117.975 50.777 117.665 49.7518C117.063 47.759 113.024 40.7027 108.507 39.3431C103.989 37.9835 107.467 33.4234 108.727 33.213C109.957 33.0076 109.425 30.4435 107.395 32.0674C105.71 33.4162 104.919 35.2446 104.658 36.9962C104.573 37.5661 104.074 38.0035 103.498 37.9842Z" fill="#3CCD95"/>
<ellipse cx="103.22" cy="43.3752" rx="0.957983" ry="2.23529" transform="rotate(48.2627 103.22 43.3752)" fill="#EAEAEA"/>
<path d="M103.713 44.319C103.471 43.3543 102.607 43.1131 102.205 43.1132C101.24 43.1133 101.2 44.5201 101.301 45.2234C102.205 45.324 103.954 45.2838 103.713 44.319Z" fill="#3CCD95"/>
<ellipse cx="110.791" cy="50.7326" rx="0.957983" ry="2.23529" transform="rotate(48.2627 110.791 50.7326)" fill="#EAEAEA"/>
<path d="M110.986 51.8562C110.745 50.8914 109.881 50.6502 109.479 50.6503C108.514 50.6504 108.474 52.0572 108.574 52.7606C109.479 52.8611 111.227 52.8209 110.986 51.8562Z" fill="#3CCD95"/>
<path d="M93.2464 48.332L95.3129 45.9306C95.5503 45.5731 95.2623 45.255 96.6301 45.3789C99.1705 45.609 96.6935 46.774 96.8862 47.2844C97.5926 49.1561 96.133 48.4465 95.8488 48.4899L95.6229 48.6748L94.4876 49.6042C94.0743 49.9424 93.4585 49.8443 93.1709 49.3943C92.9588 49.0624 92.9894 48.6306 93.2464 48.332Z" fill="#28EEA2"/>
<path d="M107.536 56.449C107.511 57.155 105.707 59.0023 104.441 60.183C104.129 60.474 103.65 60.477 103.326 60.1987C102.97 59.892 102.93 59.3545 103.236 58.9981L104.636 57.3711C104.997 56.9525 105.464 56.8631 105.141 56.4152C104.972 56.1806 104.826 55.89 104.871 55.6299C105.029 54.7124 106.084 55.1993 107.159 54.4394C108.234 53.6795 107.573 55.4273 107.536 56.449Z" fill="#28EEA2"/>
<path d="M104.656 53.6215C104.729 53.7002 104.851 53.6271 104.911 53.5375C105.307 52.9392 105.512 50.2874 104.533 49.2032C103.706 48.287 101.198 48.292 100.871 48.5875C100.544 48.8831 102.325 49.4831 103.153 50.3993C103.87 51.1933 104.333 53.2733 104.656 53.6215Z" fill="black"/>
</g>
<path d="M87.2592 56.4557C86.0853 57.8198 76.649 58.83 68.3121 54.2434C68.2526 54.2106 68.1928 54.1736 68.1517 54.1196C67.6771 53.4966 69.5114 52.3186 70.7618 51.1621C71.1068 50.843 71.619 50.7505 72.0423 50.9547C80.4608 55.0173 90.2697 51.5943 91.0562 52.2711C91.8652 52.9673 88.4372 55.0867 87.2592 56.4557Z" fill="#A7A7A7"/>
<path d="M68.2194 54.1305C68.1462 54.1111 68.0762 54.0758 68.0123 54.0352C62.1115 50.2842 59.946 46.2328 62.0624 38.1072C62.364 37.2425 64.479 36.6117 66.1506 36.8258C66.6168 36.8855 66.8923 37.3388 66.8424 37.806C65.9369 46.2943 67.8463 47.6497 71.1432 50.4364C71.4571 50.7017 71.5766 51.1353 71.3978 51.5053C70.8244 52.6925 69.5975 54.4971 68.2194 54.1305Z" fill="#A7A7A7"/>
<path d="M68.8237 31.7984C71.2386 30.2133 67.0468 35.3225 66.9338 37.004C66.889 37.6702 63.2139 38.6935 62.2692 38.2984C62.0937 38.2251 62.0872 38.0091 62.1337 37.8247L62.6312 35.8509C60.5929 22.2702 64.5783 26.771 67.2817 31.4632C67.5926 32.0028 68.3031 32.1401 68.8237 31.7984Z" fill="#3E4076"/>
<path d="M86.2456 53.9875C86.3138 53.9082 86.398 53.8376 86.4876 53.7836C94.6013 48.8922 95.2621 53.1449 101.202 58.2564C107.142 63.3675 111.588 63.8977 108.044 72.3367C108.004 72.4314 107.948 72.5233 107.881 72.6012L87.8987 95.8217C82.1118 102.547 72.5779 103.831 66.6041 98.6901C60.6303 93.5495 60.4787 83.9307 66.2656 77.2059L86.2456 53.9875Z" fill="#C4C4C4"/>
<path d="M112.938 92.4762C116.68 87.6727 116.685 78.0908 108.313 68.1189C108.279 68.0781 108.242 68.0375 108.197 68.0096C107.36 67.4935 104.872 69.2322 104.656 71.4108C104.631 71.6639 104.747 71.9101 104.924 72.0923C113.018 80.4026 110.539 87.521 108.557 90.2749C109.366 90.971 111.76 93.8452 112.938 92.4762Z" fill="#A7A7A7"/>
<path d="M106.682 94.3896C107.362 95.1183 109.988 95.6308 110.688 94.9215C111.352 94.2491 112.103 93.4466 112.938 92.4762C112.129 91.7801 109.735 88.9059 108.557 90.2749C108.214 91.0171 107.292 92.0434 106.52 92.7993C106.146 93.1648 106.089 93.7485 106.444 94.1326C106.522 94.2171 106.602 94.3029 106.682 94.3896Z" fill="#A7A7A7"/>
<path d="M108.334 97.143C108.842 96.4002 107.553 94.9103 106.574 93.9302C106.218 93.5731 105.651 93.5671 105.217 93.825C104.804 94.0704 104.412 94.2396 104.103 94.3731L104.094 94.377C104.043 94.3988 103.989 94.417 103.935 94.4305C102.65 94.7534 101.877 95.0176 101.476 95.2277C100.712 95.6283 101.864 96.9249 101.375 97.6357C97.5691 103.166 107.636 98.1622 108.334 97.143Z" fill="#3E4076"/>
<rect x="86.499" y="58.1886" width="19.3241" height="8.02692" rx="1" transform="rotate(44.1317 86.499 58.1886)" fill="#A7A7A7"/>
<circle cx="95.5438" cy="72.348" r="1.78376" transform="rotate(44.1317 95.5438 72.348)" fill="#3E4076"/>
<circle cx="92.1298" cy="69.0358" r="1.78376" transform="rotate(44.1317 92.1298 69.0358)" fill="#141740"/>
<circle cx="88.9291" cy="65.9308" r="1.78376" transform="rotate(44.1317 88.9291 65.9308)" fill="#3E4076"/>
<circle cx="85.9418" cy="63.0326" r="1.78376" transform="rotate(44.1317 85.9418 63.0326)" fill="#141740"/>
<path d="M62.021 88.2176C62.0117 88.991 61.2453 89.6075 60.5108 89.3652C54.5476 87.398 42.6472 85.1623 35.0554 88.4068C33.9353 87.4429 32.9582 86.2861 33.8685 85.2282C46.042 80.7272 58.5679 84.4988 61.608 85.7853C61.9677 85.9376 62.153 86.3063 62.1167 86.6952C62.0606 87.297 62.0263 87.7726 62.021 88.2176Z" fill="#A7A7A7"/>
<path d="M35.0554 88.4068C26.0519 92.4676 24.7271 99.5806 23.6 106.424C23.534 106.825 23.2329 107.147 22.8326 107.216C22.0035 107.359 20.6898 107.509 20.7218 107.021C20.7341 106.834 20.8353 106.658 20.8447 106.471C21.4258 94.8999 27.7029 87.5079 33.8685 85.2282C33.6876 87.0337 34.8484 87.0521 35.0554 88.4068Z" fill="#A7A7A7"/>
<path d="M20.6724 107.028C20.7889 106.992 20.8919 106.924 20.9954 106.859C21.8259 106.339 23.5443 106.561 23.4456 107.28C23.4335 107.368 23.4043 107.453 23.3935 107.541C23.3572 107.836 23.2605 108.621 23.1032 109.898C23.0513 110.319 22.7396 110.656 22.3158 110.666C20.3736 110.715 16.0432 110.158 14.7299 109.306C14.4038 109.095 14.561 108.702 14.9086 108.528C17.5183 107.225 19.3412 107.442 20.6724 107.028Z" fill="#3E4076"/>
<path d="M21.5092 101.116C21.6689 100.379 22.6649 100.1 23.3564 100.399C23.5117 100.466 23.6657 100.528 23.8117 100.584C24.3091 100.772 24.6317 101.289 24.5291 101.811C24.2636 103.161 23.7703 105.679 23.4661 107.289C23.3914 107.684 23.0899 108.006 22.6914 108.059C21.6011 108.206 20.8346 108 20.7234 107C20.7177 106.949 20.7182 106.898 20.7222 106.847C20.8767 104.903 21.1654 102.7 21.5092 101.116Z" fill="#3E4076"/>
<path d="M51.848 135.654C51.933 135.566 51.9929 135.459 52.0489 135.351C52.5348 134.41 54.113 133.359 54.5413 134.753C54.5503 134.782 54.5598 134.812 54.5706 134.84C54.64 135.022 54.935 135.795 55.4576 137.148C55.6104 137.544 55.4947 137.988 55.1261 138.197C53.4373 139.158 49.357 140.712 47.7972 140.581C47.4101 140.549 47.3631 140.129 47.5857 139.81C49.2589 137.417 50.878 136.656 51.848 135.654Z" fill="#3E4076"/>
<path d="M49.0436 125.454C48.9949 124.947 49.426 124.61 49.9309 124.672C50.2311 124.709 50.4735 124.722 50.824 124.662C51.439 124.556 52.0606 124.911 52.159 125.527C52.4814 127.546 53.2033 131.641 54.0488 133.722C54.2348 134.18 54.1518 134.733 53.7867 135.066C52.9948 135.788 52.4015 136.272 51.8608 135.422C51.0636 134.169 49.2904 128.024 49.0436 125.454Z" fill="#3E4076"/>
<path d="M80.2539 100.838C80.1372 100.985 79.9631 101.078 79.7805 101.121C68.352 103.848 61.4884 105.508 55.843 112.56C54.4004 112.24 52.8325 111.603 53.1353 110.24C60.0377 101.08 74.3696 98.1106 78.7629 97.7786C79.8651 97.5978 81.477 99.2972 80.2539 100.838Z" fill="#A7A7A7"/>
<path d="M55.843 112.56C51.8066 117.251 51.6236 121.563 51.885 123.73C51.9307 124.109 51.7813 124.492 51.4201 124.615C51.0254 124.749 50.4325 124.857 49.6758 124.725C49.2859 124.656 49.0169 124.312 48.9874 123.917C48.6921 119.971 49.3129 115.313 53.1353 110.24C53.8285 111.917 55.0207 111.464 55.843 112.56Z" fill="#A7A7A7"/>
<path d="M91.3482 91.8494C91.2473 91.944 91.1601 92.0707 91.0957 92.1931C88.9662 96.2392 79.7623 88.2503 79.4051 87.938C79.3936 87.9279 79.3891 87.9234 79.378 87.9128C73.7027 82.4307 67.279 75.0874 69.2944 73.5322C69.4493 73.4126 69.6148 73.2947 69.7228 73.1315C71.4974 70.4496 69.2471 73.5319 80.6917 84.1423C89.6191 92.419 94.9788 88.4451 91.3482 91.8494Z" fill="url(#paint0_linear_825_457)"/>
<path d="M117.949 69.3333C110.989 74.7297 103.371 73.6098 99.491 72.3724C99.3661 72.3326 99.242 72.2748 99.1776 72.1606C99.0297 71.898 99.1881 71.602 99.3577 71.449C99.4655 71.3516 99.6162 71.3713 99.7533 71.4194C102.839 72.5001 110.182 73.4411 116.594 69.0533C116.537 69.036 116.491 68.9946 116.465 68.929C116.275 68.4507 116.52 67.7338 117.211 67.7883C117.275 67.7933 117.337 67.811 117.396 67.8362C117.939 68.069 118.695 68.6385 117.949 69.3333Z" fill="#757575"/>
<defs>
<linearGradient id="paint0_linear_825_457" x1="71.0126" y1="70.3222" x2="95.7193" y2="91.9751" gradientUnits="userSpaceOnUse">
<stop stop-color="#FF0000"/>
<stop offset="0.489583" stop-color="#000AFF"/>
<stop offset="1" stop-color="#138700"/>
</linearGradient>
</defs>
</svg>
