<svg width="8020" height="7985" viewBox="0 0 8020 7985" fill="none" xmlns="http://www.w3.org/2000/svg">
<circle cx="4015" cy="3989" r="3989" fill="#2B275F"/>
<path d="M2400 1524.5C1868 1660.5 1453.33 1228.33 1277.5 1069.5C928.5 1388.5 469.167 2110 355.5 2394C435 2649.5 740.5 3184.4 1326.5 3280C2059 3399.5 2945.5 2155 3917 2036C4888.5 1917 5348 2359.5 5893.5 2598C6439 2836.5 7665.5 2581 7597.5 2240.5C7543.1 1968.1 7199.83 1559 7035 1388.5L6728.5 1524.5C6279.67 1558.67 5211.6 1545.2 4530 1218C3678 809 3065 1354.5 2400 1524.5Z" fill="#246B8A"/>
<path d="M3555.5 710C3031.9 801.6 2115 748.167 1722 710C1842 625.2 2264 403.667 2460 303.5C2605.83 363.833 3007.6 493.3 3448 528.5C3998.5 572.5 4211 272 4479.5 272C4748 272 5849 484.5 6112 591C6322.4 676.2 6568.67 913.167 6665.5 1021C6267.17 1042.83 5352.7 1011.2 4881.5 710C4292.5 333.5 4210 595.5 3555.5 710Z" fill="#186181"/>
<path d="M73.5002 3350C488.5 3470.5 1788 3738.5 3007 3350C4226 2961.5 4748 2639.5 5512 3108.5C6276 3577.5 7106 3470 7200 3242.5C7275.2 3060.5 7687 3077.33 7883.5 3108.5C7954.83 3300.67 8076.1 3730.5 7990.5 3912.5C7883.5 4140 7655.5 4247.5 7548.5 4247.5C7441.5 4247.5 6745 4046.5 6517 3979.5C6289 3912.5 4909.5 3711.5 4708.5 4247.5C4507.5 4783.5 3100.5 4877 3007 4877C2913.5 4877 1721 4408.5 1587 4328C1453 4247.5 743.5 4234 408.5 4555.5C172.926 4781.58 147.772 4976.06 169.357 5071.43C173.135 5083.16 176.855 5094.35 180.5 5105C176.185 5095.8 172.328 5084.56 169.357 5071.43C62.2327 4738.93 -91.8674 3981.72 73.5002 3350Z" fill="#186181"/>
<path d="M1614 5533.5C649.5 5694.5 381.5 5399.5 274.5 5372.5C381.7 5822.5 792.5 6381.67 984.5 6605C1033.5 6582.67 1163.7 6551.4 1292.5 6605C1453.5 6672 2217 6484.5 3449 6109.5C4681 5734.5 4467.5 6056 5365 6297C6083 6489.8 6700.17 6645.33 6919 6699C7329.83 6364 7821 5420.5 7763 5372.5C7374.5 5051 5740 5372.5 5606 5372.5C5472 5372.5 4963 5694 4695 5694C4427 5694 3918 5533.5 3449 5372.5C2980 5211.5 2578.5 5372.5 1614 5533.5Z" fill="#246B8A"/>
<path d="M3418.09 6849.26C2715.91 6746.07 1994.79 7077.23 1722 7255.71C3820.89 8707.13 6061.32 7662.5 6680 6938.75C6630.2 6889.09 6528.6 6819.56 6520.55 6938.75C6510.49 7087.73 6161.41 7107.23 6061.32 7107.23C5961.22 7107.23 6141.3 6928.75 5881.75 6789.77C5622.21 6650.79 5393.34 6958.25 5173.54 7186.72C4953.73 7415.19 4295.81 6978.24 3418.09 6849.26Z" fill="#246B8A"/>
</svg>
