<svg width="664" height="800" viewBox="0 0 664 800" fill="none" xmlns="http://www.w3.org/2000/svg">
<mask id="mask0" mask-type="alpha" maskUnits="userSpaceOnUse" x="0" y="0" width="158" height="159">
<ellipse cx="79.3111" cy="79.4846" rx="78.5787" ry="78.9848" fill="#9093A7"/>
</mask>
<g mask="url(#mask0)">
<circle cx="78.7386" cy="79.6877" r="79.1878" fill="#9093A7"/>
<ellipse cx="124.63" cy="83.0816" rx="26.7921" ry="24.5196" transform="rotate(-67.5572 124.63 83.0816)" fill="#ADB2C2"/>
<ellipse cx="51.4806" cy="120.989" rx="14.1829" ry="12.0751" transform="rotate(21.819 51.4806 120.989)" fill="#ADB2C2"/>
<path d="M29.3944 51.3219C25.1975 65.3964 14.4424 74.6134 5.37221 71.9087C-3.69799 69.2041 -7.64859 55.6019 -3.45169 41.5275C0.745204 27.453 11.5003 18.236 20.5705 20.9406C29.6407 23.6453 33.5913 37.2475 29.3944 51.3219Z" fill="#ADB2C2"/>
</g>
<path d="M43.3398 44.8196C52.1263 15.4188 88.5079 0.00725555 115.997 37.3849L43.3398 44.8196Z" fill="#008AD8" fill-opacity="0.33"/>
<g filter="url(#filter0_d)">
<path d="M117.551 40.463C118.204 47.5646 101.932 54.8646 81.2066 56.7681C60.4817 58.6715 43.6208 55.0208 42.9686 47.9192C42.3164 40.8177 58.1197 32.9545 78.8447 31.0511C99.5696 29.1476 116.899 33.3615 117.551 40.463Z" fill="#6BB869"/>
</g>
<path d="M84.2081 33.8808C81.9627 30.1232 78.8575 31.6256 78.2284 34.2749L78.2359 37.4771C79.3326 38.4401 82.1035 39.7021 84.4149 37.0701L84.2081 33.8808Z" fill="#2E3252"/>
<path d="M96.9371 39.2739C84.7365 25.7499 70.102 34.4935 66.0451 41.3529C65.7875 41.7884 65.9545 42.3429 66.3864 42.6064C81.049 51.5495 91.6816 44.685 96.818 40.689C97.2617 40.3439 97.3136 39.6913 96.9371 39.2739Z" fill="#373C62"/>
<g filter="url(#filter1_d)">
<path d="M84.6783 45.7992C82.4329 42.0416 79.3277 43.544 78.6986 46.1933L78.7061 49.3955C79.8028 50.3585 82.5738 51.6205 84.8852 48.9885L84.6783 45.7992Z" fill="#2E3252"/>
</g>
<g filter="url(#filter2_d)">
<path d="M98.2949 42.2859L93.9698 42.164C92.8213 40.3732 93.5569 39.0884 94.0682 38.6698L97.2544 38.7596C98.174 38.7855 99.1577 39.018 99.6098 39.8193C99.7501 40.0679 99.8537 40.3286 99.9284 40.5875C100.208 41.5566 99.3031 42.3143 98.2949 42.2859Z" fill="#2E3252"/>
</g>
<path d="M77.8905 44.357C75.3943 43.9146 72.8417 43.1685 71.274 42.5717C70.7139 42.3585 70.0229 42.8143 70.0617 43.4123C70.077 43.6481 70.2031 43.863 70.4114 43.9746C71.6308 44.6282 74.4753 45.7554 77.6278 46.2903C78.0733 46.3659 78.5041 46.1072 78.6633 45.6844C78.8829 45.1016 78.5037 44.4657 77.8905 44.357Z" fill="#307FC8" fill-opacity="0.35"/>
<path d="M85.2151 43.5642C88.1307 42.6982 90.6095 41.8168 92.1059 41.051C92.5846 40.806 93.2695 41.1589 93.2695 41.6967C93.2695 41.8768 93.1927 42.0483 93.0554 42.1647C91.9191 43.1274 89.6857 44.7487 85.9849 45.9276C85.5275 46.0733 85.0366 45.8561 84.821 45.4272L84.597 44.9817C84.3152 44.4211 84.6137 43.7428 85.2151 43.5642Z" fill="#307FC8" fill-opacity="0.35"/>
<path d="M79.2407 45.9169C81.5638 44.8271 82.7772 45.2264 84.0454 45.677C84.4314 45.8141 84.7039 46.1671 84.7304 46.5759L84.841 48.2805C84.8685 48.7045 84.6243 49.0992 84.2403 49.2812C82.9087 49.9124 82.2222 50.3333 79.4253 49.5914C78.9982 49.4781 78.707 49.0865 78.7059 48.6445L78.7016 46.7908C78.7007 46.4195 78.9045 46.0746 79.2407 45.9169Z" fill="#307FC8" fill-opacity="0.35"/>
<path d="M93.7415 40.2051C94.4259 40.1468 95.7416 40.1089 95.8223 40.01C97.3644 38.3723 99.3731 38.6956 100.053 40.8328C100.198 41.2895 99.9038 41.7553 99.4404 41.8773C97.394 42.4155 95.8478 42.2044 94.4276 42.1554C94.1346 42.1453 93.8603 42.002 93.6942 41.7603C93.6502 41.6963 93.6148 41.6269 93.5888 41.5537L93.4296 41.1055C93.3988 41.0185 93.3801 40.9277 93.3741 40.8355L93.3642 40.6832C93.3471 40.4197 93.4784 40.2275 93.7415 40.2051Z" fill="#307FC8" fill-opacity="0.35"/>
<g filter="url(#filter3_d)">
<path d="M65.4659 44.1268L69.7836 43.8468C70.8659 42.0151 70.0838 40.758 69.5574 40.3585L66.3767 40.5648C65.4586 40.6243 64.4841 40.8927 64.0616 41.71C63.9305 41.9636 63.8365 42.2279 63.7713 42.4893C63.5272 43.468 64.4594 44.1921 65.4659 44.1268Z" fill="#2E3252"/>
</g>
<path d="M67.7433 41.3286C66.298 40.4018 65.0641 40.9205 64.5925 41.2726L63.4902 41.876C62.7756 42.2671 62.808 43.3044 63.5688 43.5957C66.5807 44.7486 66.7706 43.7078 69.4802 43.2695C69.7684 43.2229 70.0238 43.046 70.1529 42.7841C70.1863 42.7165 70.2106 42.6448 70.2254 42.5709L70.3181 42.1061C70.3362 42.0155 70.3417 41.9229 70.3343 41.8308L70.3226 41.6838C70.3015 41.4205 70.1437 41.2492 69.88 41.265C69.2723 41.3014 68.1778 41.4247 67.8793 41.3909C67.8289 41.3851 67.786 41.356 67.7433 41.3286Z" fill="#307FC8" fill-opacity="0.35"/>
<path d="M65.4939 42.8538C66.1152 42.6211 68.5483 43.2232 66.026 41.2886C65.8828 41.2038 65.3251 40.959 64.8832 41.1449C64.4491 41.3275 64.4283 41.4313 64.0377 41.7803C67.8415 42.5701 65.4332 42.6415 64.6996 42.9407C64.0853 43.1912 64.9366 43.4634 65.8245 43.8387C65.9924 43.9096 66.1768 43.9381 66.3577 43.9152C68.7489 43.6119 67.9909 43.5386 65.9656 43.4231C65.894 43.4191 65.8207 43.407 65.7517 43.3874C64.3387 42.9851 65.0921 43.0043 65.4939 42.8538Z" fill="#D5D5D5" fill-opacity="0.42"/>
<path d="M91.6143 41.9576C88.8574 43.7842 89.3131 43.7834 91.6081 42.8122C93.7962 41.8862 90.7931 43.9654 89.9856 44.2834L88.2284 45.0355C92.1752 41.3444 81.6219 46.9731 89.9435 41.98L92.0403 41.2403C92.0169 41.5313 91.8577 41.7963 91.6143 41.9576Z" fill="#D5D5D5" fill-opacity="0.42"/>
<path d="M71.7608 43.4651L76.9659 44.2781C77.1407 44.3054 77.3062 44.3746 77.4484 44.4799C77.5383 44.5465 77.4811 44.69 77.3698 44.6786C75.0914 44.4449 74.2143 44.5812 75.8611 45.0354C76.7513 45.2809 76.3655 45.3051 75.7238 45.2733C74.6294 45.219 73.5321 45.0374 72.469 44.7714L70.736 44.1314C71.8345 44.343 73.6282 44.6469 72.0146 44.1705C70.401 43.694 71.3034 43.3978 71.7608 43.4651Z" fill="#D5D5D5" fill-opacity="0.42"/>
<path d="M81.4387 47.7468C78.5025 48.6018 79.7657 46.6105 81.3471 45.2736C82.1841 45.022 84.2732 45.7253 83.6623 45.5647C83.0514 45.4042 81.1913 47.313 82.2446 46.9422C84.5617 46.1263 84.7582 48.8919 84.1629 49.2973C82.2914 50.5718 79.8635 49.7477 79.5227 49.6364C83.5144 49.6516 84.5805 46.8319 81.4387 47.7468Z" fill="#D5D5D5" fill-opacity="0.42"/>
<path d="M97.9149 40.7188C97.2894 40.6019 95.091 41.5737 97.1529 39.3286C97.2741 39.2247 97.6313 39.0096 98.09 38.9799C98.679 38.9417 98.5689 39.6217 98.0361 39.8757C96.3028 40.7021 98.0405 40.5307 98.6795 40.6692C99.301 40.804 98.5804 41.2637 97.8108 41.7759C97.6646 41.8732 97.4958 41.9324 97.3205 41.9427C96.4561 41.9936 95.7217 41.9869 95.5043 42.0268L94.3575 42.1012C94.3297 42.103 94.3243 42.0737 94.3515 42.0679C94.9534 41.9412 96.5048 41.7253 97.6653 41.3108C99.0617 40.6444 98.329 40.7962 97.9149 40.7188Z" fill="#D5D5D5" fill-opacity="0.42"/>
<path d="M77.2666 35.6695C76.1728 36.7078 73.8475 39.4234 73.2967 41.9797" stroke="#A61414" stroke-width="0.3" stroke-linecap="round"/>
<path d="M77.2666 35.6695C76.1728 36.7078 73.8475 39.4234 73.2967 41.9797" stroke="#A61414" stroke-width="0.3" stroke-linecap="round"/>
<path d="M85.3399 35.146C86.0819 35.9544 87.7079 38.9523 88.2759 41.1475" stroke="#A61414" stroke-width="0.3" stroke-linecap="round"/>
<path d="M80.8755 35.7359L81.6199 42.8119" stroke="#A61414" stroke-width="0.3" stroke-linecap="round"/>
<path d="M75.7222 34.9692C74.6726 35.2799 72.0526 36.4513 69.97 38.651" stroke="#A61414" stroke-width="0.3" stroke-linecap="round"/>
<path d="M75.7222 34.9692C74.6726 35.2799 72.0526 36.4513 69.97 38.651" stroke="#A61414" stroke-width="0.3" stroke-linecap="round"/>
<path d="M75.7222 34.9692C74.6726 35.2799 72.0526 36.4513 69.97 38.651" stroke="#A61414" stroke-width="0.3" stroke-linecap="round"/>
<path d="M75.7222 34.9692C74.6726 35.2799 72.0526 36.4513 69.97 38.651" stroke="#A61414" stroke-width="0.3" stroke-linecap="round"/>
<path d="M86.0866 34.2971C87.3464 34.5821 89.7147 35.0198 92.4382 37.819" stroke="#A61414" stroke-width="0.3" stroke-linecap="round"/>
<path d="M86.0866 34.2971C87.3464 34.5821 89.7147 35.0198 92.4382 37.819" stroke="#A61414" stroke-width="0.3" stroke-linecap="round"/>
<path d="M86.0866 34.2971C87.3464 34.5821 89.7147 35.0198 92.4382 37.819" stroke="#A61414" stroke-width="0.3" stroke-linecap="round"/>
<path d="M86.0866 34.2971C87.3464 34.5821 89.7147 35.0198 92.4382 37.819" stroke="#A61414" stroke-width="0.3" stroke-linecap="round"/>
<ellipse cx="80.792" cy="34.4404" rx="4.49434" ry="0.798994" transform="rotate(-3.71066 80.792 34.4404)" fill="#A61414"/>
<ellipse cx="80.7172" cy="34.8456" rx="2.59673" ry="0.399497" transform="rotate(-3.71066 80.7172 34.8456)" fill="#8D1111"/>
<mask id="mask1" mask-type="alpha" maskUnits="userSpaceOnUse" x="37" y="13" width="12" height="42">
<path d="M37.807 15.7771L39.2493 53.2607C41.2131 55.079 45.7433 55.04 47.6915 52.9359L46.587 15.4392C42.3996 12.0832 38.9889 14.2661 37.807 15.7771Z" fill="#C4C4C4"/>
</mask>
<g mask="url(#mask1)">
<path d="M37.807 15.7771L39.2493 53.2607C41.2131 55.079 45.7433 55.04 47.6915 52.9359L46.587 15.4393C42.3996 12.0832 38.9889 14.2661 37.807 15.7771Z" fill="#C4C4C4"/>
<path d="M38.0688 15.866C40.7724 18.5695 45.1656 16.8798 46.1794 15.5281" stroke="#B0B0B0" stroke-width="0.5" stroke-linecap="round"/>
<path d="M40.4684 39.5961C40.1164 39.5961 39.7938 39.5348 39.5004 39.4121C39.2124 39.2841 38.9644 39.1028 38.7564 38.8681C38.5484 38.6334 38.3858 38.3481 38.2684 38.0121C38.1564 37.6761 38.1004 37.2948 38.1004 36.8681C38.1004 36.4414 38.1564 36.0628 38.2684 35.7321C38.3858 35.3961 38.5484 35.1161 38.7564 34.8921C38.9644 34.6628 39.2124 34.4894 39.5004 34.3721C39.7938 34.2494 40.1164 34.1881 40.4684 34.1881C40.8204 34.1881 41.1404 34.2494 41.4284 34.3721C41.7218 34.4894 41.9724 34.6628 42.1804 34.8921C42.3884 35.1214 42.5484 35.4041 42.6604 35.7401C42.7778 36.0708 42.8364 36.4468 42.8364 36.8681C42.8364 37.2948 42.7778 37.6761 42.6604 38.0121C42.5484 38.3481 42.3884 38.6334 42.1804 38.8681C41.9724 39.1028 41.7218 39.2841 41.4284 39.4121C41.1404 39.5348 40.8204 39.5961 40.4684 39.5961ZM40.4684 38.5801C40.8258 38.5801 41.1084 38.4281 41.3164 38.1241C41.5244 37.8148 41.6284 37.3961 41.6284 36.8681C41.6284 36.3454 41.5244 35.9374 41.3164 35.6441C41.1084 35.3508 40.8258 35.2041 40.4684 35.2041C40.1111 35.2041 39.8284 35.3508 39.6204 35.6441C39.4124 35.9374 39.3084 36.3454 39.3084 36.8681C39.3084 37.3961 39.4124 37.8148 39.6204 38.1241C39.8284 38.4281 40.1111 38.5801 40.4684 38.5801ZM43.5612 36.5001L43.5612 36.0361C43.9612 35.7054 44.2892 35.4148 44.5452 35.1641C44.8012 34.9081 44.9292 34.6814 44.9292 34.4841C44.9292 34.3294 44.8892 34.2094 44.8092 34.1241C44.7292 34.0388 44.6172 33.9961 44.4732 33.9961C44.3665 33.9961 44.2678 34.0308 44.1772 34.1001C44.0865 34.1641 43.9958 34.2548 43.9052 34.3721L43.4172 33.9241C43.7372 33.4974 44.1345 33.2841 44.6092 33.2841C44.9558 33.2841 45.2332 33.3774 45.4412 33.5641C45.6545 33.7454 45.7612 34.0041 45.7612 34.3401C45.7612 34.4681 45.7372 34.5934 45.6892 34.7161C45.6465 34.8334 45.5852 34.9508 45.5052 35.0681C45.4305 35.1854 45.3425 35.3028 45.2412 35.4201C45.1452 35.5374 45.0412 35.6574 44.9292 35.7801L45.8732 35.7801L45.8732 36.5001L43.5612 36.5001Z" fill="#3E4076"/>
</g>
<mask id="mask2" mask-type="alpha" maskUnits="userSpaceOnUse" x="110" y="11" width="10" height="42">
<path d="M110.746 13.5034L111.014 51.0138C112.92 52.8927 117.449 52.9955 119.462 50.9534L119.533 13.4406C115.452 9.95507 111.975 12.0301 110.746 13.5034Z" fill="#C4C4C4"/>
</mask>
<g mask="url(#mask2)">
<path d="M110.747 13.5034L111.015 51.0138C112.921 52.8927 117.45 52.9955 119.463 50.9534L119.533 13.4406C115.453 9.95507 111.975 12.0301 110.747 13.5034Z" fill="#C4C4C4"/>
<path d="M111.232 14.0001C113.85 16.7869 118.177 15.3194 119.232 14.0001" stroke="#B0B0B0" stroke-width="0.5" stroke-linecap="round"/>
<path d="M112.468 39.5961C112.116 39.5961 111.794 39.5347 111.5 39.4121C111.212 39.2841 110.964 39.1027 110.756 38.8681C110.548 38.6334 110.386 38.3481 110.268 38.0121C110.156 37.6761 110.1 37.2947 110.1 36.8681C110.1 36.4414 110.156 36.0627 110.268 35.7321C110.386 35.3961 110.548 35.1161 110.756 34.8921C110.964 34.6627 111.212 34.4894 111.5 34.3721C111.794 34.2494 112.116 34.1881 112.468 34.1881C112.82 34.1881 113.14 34.2494 113.428 34.3721C113.722 34.4894 113.972 34.6627 114.18 34.8921C114.388 35.1214 114.548 35.4041 114.66 35.7401C114.778 36.0707 114.836 36.4467 114.836 36.8681C114.836 37.2947 114.778 37.6761 114.66 38.0121C114.548 38.3481 114.388 38.6334 114.18 38.8681C113.972 39.1027 113.722 39.2841 113.428 39.4121C113.14 39.5347 112.82 39.5961 112.468 39.5961ZM112.468 38.5801C112.826 38.5801 113.108 38.4281 113.316 38.1241C113.524 37.8147 113.628 37.3961 113.628 36.8681C113.628 36.3454 113.524 35.9374 113.316 35.6441C113.108 35.3507 112.826 35.2041 112.468 35.2041C112.111 35.2041 111.828 35.3507 111.62 35.6441C111.412 35.9374 111.308 36.3454 111.308 36.8681C111.308 37.3961 111.412 37.8147 111.62 38.1241C111.828 38.4281 112.111 38.5801 112.468 38.5801ZM115.561 36.5001L115.561 36.0361C115.961 35.7054 116.289 35.4147 116.545 35.1641C116.801 34.9081 116.929 34.6814 116.929 34.4841C116.929 34.3294 116.889 34.2094 116.809 34.1241C116.729 34.0387 116.617 33.9961 116.473 33.9961C116.367 33.9961 116.268 34.0307 116.177 34.1001C116.087 34.1641 115.996 34.2547 115.905 34.3721L115.417 33.9241C115.737 33.4974 116.135 33.2841 116.609 33.2841C116.956 33.2841 117.233 33.3774 117.441 33.5641C117.655 33.7454 117.761 34.0041 117.761 34.3401C117.761 34.4681 117.737 34.5934 117.689 34.7161C117.647 34.8334 117.585 34.9507 117.505 35.0681C117.431 35.1854 117.343 35.3027 117.241 35.4201C117.145 35.5374 117.041 35.6574 116.929 35.7801L117.873 35.7801L117.873 36.5001L115.561 36.5001Z" fill="#3E4076"/>
</g>
<mask id="mask3" mask-type="alpha" maskUnits="userSpaceOnUse" x="127" y="80" width="537" height="530">
<ellipse cx="395.731" cy="345" rx="267.999" ry="264.5" fill="#DC6449"/>
</mask>
<g mask="url(#mask3)">
<mask id="mask4" mask-type="alpha" maskUnits="userSpaceOnUse" x="124" y="78" width="533" height="533">
<circle cx="390.833" cy="344.534" r="265.899" fill="#DC6449"/>
</mask>
<g mask="url(#mask4)">
<circle cx="390.833" cy="344.534" r="265.899" fill="#DC6449"/>
<path d="M440.189 514.882C372.677 498.828 286.555 544.982 251.934 570.066C260.722 577.29 282.56 586.286 292.381 590.132C293.58 588.126 301.203 580.935 304.865 577.591C357.796 540.467 367.284 570.066 425.708 570.066C484.132 570.066 573.017 527.925 590.494 514.882C604.476 504.447 627.279 461.035 636.934 440.634C599.482 472.072 507.701 530.935 440.189 514.882Z" fill="#CC362D"/>
<path d="M366.934 607.134C411.6 595.967 503.234 574.634 512.434 578.634C449.234 610.634 389.1 610.967 366.934 607.134Z" fill="#CC362D"/>
<path d="M655.729 365.605C660.144 329.081 651.548 288.344 646.698 272.289C630.028 292.696 610.074 318.536 523.783 326.974C370.765 341.937 370.188 354.352 280.46 414.771C225.909 427.257 178.784 421.364 139.049 428.806C140.662 438.262 164.027 489.067 188.649 518.121C206.041 520.462 241.854 525.906 268.419 503.07C354.209 429.32 381.377 446.374 394.846 450.893C471.104 476.48 463.579 423.802 497.193 436.344C524.084 446.378 598.87 399.219 655.729 365.605Z" fill="#CC362D"/>
<path d="M355.213 232.153C295.009 261.854 180.622 282.658 131.456 288.845C127.777 305.234 121.522 342.928 125.937 364.601C136.473 390.69 227.28 361.09 270.928 364.601C314.575 368.113 316.582 284.832 423.443 298.879C508.933 310.117 600.543 265.433 635.661 241.686C630.477 227.471 612.182 191.014 580.475 158.906C559.403 197.035 531.81 192.519 484.65 196.533C437.491 200.547 430.467 195.028 355.213 232.153Z" fill="#CC362D"/>
<path d="M208.717 151.38C365.748 142.851 400.366 93.1833 492.176 99.2037L514.753 109.739L531.81 119.773C548.366 130.309 128.646 260.449 151.524 229.143C162.762 200.245 194.335 165.26 208.717 151.38Z" fill="#CC362D"/>
<path d="M425.952 81.1426C400.034 90.6126 304.297 100.083 256.315 115.456C279.461 99.5093 345.392 71.1723 425.952 81.1426Z" fill="#CC362D"/>
<circle cx="235.808" cy="441.361" r="15.5526" fill="#DA4A41"/>
<circle cx="369.26" cy="256.737" r="17.5594" fill="#DA4A41"/>
<ellipse cx="360.23" cy="359.083" rx="8.52886" ry="8.52884" fill="#DA4A41"/>
<ellipse cx="236.31" cy="344.534" rx="28.095" ry="28.095" fill="#DA4A41"/>
<circle cx="439.498" cy="462.432" r="15.5526" fill="#DA4A41"/>
<circle cx="445.016" cy="345.537" r="29.0984" fill="#DA4A41"/>
<path d="M369.762 456.914C369.762 481.851 349.546 502.066 324.609 502.066C299.672 502.066 279.456 481.851 279.456 456.914C279.456 431.977 299.672 411.761 324.609 411.761C349.546 411.761 369.762 431.977 369.762 456.914Z" fill="#DA4A41"/>
<path d="M146.338 126.927C146.368 126.835 146.499 126.835 146.529 126.927L146.972 128.292C146.986 128.334 147.024 128.362 147.068 128.362H148.503C148.6 128.362 148.641 128.486 148.562 128.542L147.401 129.387C147.366 129.412 147.351 129.457 147.364 129.498L147.808 130.864C147.838 130.956 147.732 131.033 147.654 130.976L146.492 130.132C146.457 130.106 146.41 130.106 146.375 130.132L145.213 130.976C145.135 131.033 145.029 130.956 145.059 130.864L145.503 129.498C145.516 129.457 145.502 129.412 145.467 129.387L144.305 128.542C144.227 128.486 144.267 128.362 144.364 128.362H145.8C145.843 128.362 145.881 128.334 145.895 128.292L146.338 126.927Z" fill="#C4C4C4"/>
</g>
<path d="M415.686 221.952C404.319 207.904 392.505 215.854 391.478 227.047L393.375 240.129C398.418 243.426 410.478 246.968 418.39 234.865L415.686 221.952Z" fill="#A61414"/>
<g filter="url(#filter4_d)">
<path d="M470.167 236.007C413.12 189.128 359.185 232.123 346.112 262.371C345.108 264.693 346.32 267.313 348.649 268.301C412.633 295.443 451.709 262.438 470.554 243.081C472.515 241.067 472.338 237.791 470.167 236.007Z" fill="#CD4F4F"/>
</g>
<g filter="url(#filter5_d)">
<path d="M424.563 270.384C413.196 256.336 401.382 264.286 400.355 275.48L402.252 288.562C407.295 291.859 419.355 295.401 427.267 283.298L424.563 270.384Z" fill="#BC2828"/>
</g>
<g filter="url(#filter6_d)">
<path d="M489.201 240.421L466.313 245.214C459.983 239.125 461.704 233.261 463.355 231.09L480.541 227.491C481.442 227.302 482.39 227.343 483.213 227.753C487.862 230.064 489.957 234.97 490.665 238.316C490.874 239.302 490.188 240.214 489.201 240.421Z" fill="#BC2828"/>
</g>
<g filter="url(#filter7_d)">
<path d="M329.875 273.784L352.763 268.992C356.118 260.875 352.189 256.194 349.805 254.868L332.619 258.467C331.719 258.655 330.867 259.072 330.277 259.778C326.946 263.76 326.995 269.095 327.689 272.443C327.894 273.431 328.888 273.991 329.875 273.784Z" fill="#BC2828"/>
</g>
<path d="M399.409 266.695C382.692 266.478 363.742 263.042 356.392 260.516C355.61 260.247 354.767 260.94 354.936 261.749L356.334 268.425C356.399 268.731 356.597 268.989 356.883 269.116C362.733 271.719 379.875 276.452 397.792 276.655C398.269 276.66 398.682 276.324 398.776 275.856L400.384 267.899C400.509 267.281 400.039 266.703 399.409 266.695Z" fill="#307FC8" fill-opacity="0.35"/>
<path d="M422.009 262.496C437.541 255.403 453.841 244.325 459.641 238.914C460.248 238.349 461.303 238.644 461.473 239.456L462.931 246.415C462.994 246.719 462.918 247.032 462.71 247.262C458.336 252.126 444.281 263.674 427.636 271.244C427.199 271.443 426.683 271.299 426.409 270.905L421.599 263.985C421.241 263.47 421.438 262.757 422.009 262.496Z" fill="#307FC8" fill-opacity="0.35"/>
<path d="M400.847 275.097C411.841 267.29 417.386 269.434 423.98 270.667C424.382 270.742 424.702 271.051 424.786 271.452L427.121 282.603C427.209 283.019 427.021 283.445 426.66 283.669C419.829 287.915 418.354 290.815 402.996 288.645C402.558 288.583 402.204 288.237 402.141 287.8L400.437 276.052C400.384 275.685 400.545 275.312 400.847 275.097Z" fill="#307FC8" fill-opacity="0.35"/>
<path d="M465.969 244.022C481.245 240.84 481.369 241.496 488.405 239.324L489.953 238.721C490.408 238.543 490.669 238.063 490.568 237.584L490.264 236.129C490.245 236.038 490.213 235.95 490.17 235.868L488.836 233.336L487.651 231.554C487.622 231.51 487.589 231.468 487.552 231.429L485.974 229.723L484.572 228.492C484.475 228.407 484.364 228.339 484.239 228.305C481.866 227.642 476.42 228.896 471.834 234.321C471.801 234.359 471.772 234.402 471.732 234.433C470.985 234.99 463.867 236.141 462.145 236.717C461.894 236.801 461.811 237.042 461.865 237.301L462.343 239.583C462.362 239.674 462.394 239.762 462.437 239.844L463.709 242.26C463.75 242.337 463.801 242.409 463.86 242.473L465.019 243.725C465.258 243.983 465.625 244.094 465.969 244.022Z" fill="#307FC8" fill-opacity="0.35"/>
<path d="M352.708 267.934C337.585 271.354 337.742 272.003 330.483 272.936L328.615 272.95C328.139 272.953 327.726 272.621 327.628 272.155L327.314 270.655C327.298 270.575 327.291 270.493 327.294 270.412L327.355 268.836L327.42 267.137L327.57 265.842L327.783 264.845L328.437 262.528C328.484 262.363 328.57 262.211 328.701 262.099C330.693 260.405 337.048 258.517 343.396 261.528C343.442 261.55 343.486 261.577 343.536 261.588C344.443 261.786 351.352 259.89 353.147 259.702C353.41 259.675 353.585 259.858 353.643 260.116L354.155 262.394C354.175 262.484 354.183 262.576 354.178 262.668L354.027 265.394C354.022 265.481 354.006 265.567 353.979 265.65L353.45 267.266C353.34 267.601 353.052 267.856 352.708 267.934Z" fill="#307FC8" fill-opacity="0.35"/>
<path d="M436.697 261.947C427.953 266.793 428.664 259.825 430.83 258.072L442.836 251.03L455.361 242.453L453.994 247.585C453.79 248.35 453.358 249.042 452.764 249.566C442.057 258.999 445.23 256.803 454.261 251.529C463.542 246.109 454.197 254.122 452.735 256.061L444.702 261.955L440.198 264.583C445.63 260.652 445.441 257.1 436.697 261.947Z" fill="#D5D5D5" fill-opacity="0.42"/>
<path d="M362.319 265.393L391.558 266.488C392.41 266.52 393.246 266.737 394.006 267.125C394.555 267.405 394.353 268.241 393.737 268.248C381.28 268.39 376.732 269.561 386.055 270.88C394.4 272.061 383.362 272.219 378.424 272.442C377.117 272.501 375.799 272.502 374.499 272.347L367.368 271.494L357.358 269.293C363.525 269.722 373.557 270.215 364.346 268.76C355.136 267.305 359.77 265.317 362.319 265.393Z" fill="#D5D5D5" fill-opacity="0.42"/>
<path d="M412.459 280.232C400.957 285.438 404.959 276.563 410.643 270.178C413.917 268.662 422.864 270.319 420.274 270.019C417.684 269.719 411.195 278.604 415.283 276.474C424.277 271.789 426.692 282.977 424.495 284.981C417.59 291.281 407.187 289.328 405.729 289.071C422.051 286.807 424.765 274.662 412.459 280.232Z" fill="#D5D5D5" fill-opacity="0.42"/>
<path d="M334.646 267.436C337.05 266.123 347.344 267.165 335.908 260.729C335.274 260.466 333.006 260.109 331.154 260.808C328.448 261.83 328.454 262.242 328.069 263.898C344.075 264.908 334.274 266.604 331.451 268.254C328.912 269.737 333.292 270.339 337.423 271.5C337.592 271.547 337.77 271.551 337.941 271.508C341.937 270.511 345.699 269.493 346.715 269.356L351.051 268.345C351.166 268.315 351.149 268.188 351.03 268.2C348.398 268.485 341.76 269.673 336.458 269.526C329.853 268.663 333.054 268.306 334.646 267.436Z" fill="#D5D5D5" fill-opacity="0.42"/>
<path d="M480.935 235.834C478.198 235.716 469.42 241.193 476.842 230.372C477.296 229.856 478.687 228.722 480.624 228.316C482.205 227.985 482.762 227.588 484.287 228.54C484.887 228.915 484.815 229.788 484.205 230.147C472.167 237.217 481.006 234.93 484.163 235.157C487.096 235.369 483.658 238.118 480.474 240.994C480.343 241.112 480.184 241.194 480.013 241.23C475.997 242.087 472.429 242.547 471.457 242.873L466.614 243.887C466.497 243.912 466.456 243.79 466.569 243.749C469.056 242.843 475.537 240.98 480.231 238.508C485.777 234.819 482.746 235.912 480.935 235.834Z" fill="#D5D5D5" fill-opacity="0.42"/>
<path d="M389.742 228.813C386.019 234.507 378.491 249.114 378.155 261.99" stroke="#A61414" stroke-linecap="round"/>
<path d="M389.742 228.813C386.019 234.507 378.491 249.114 378.155 261.99" stroke="#A61414" stroke-linecap="round"/>
<path d="M422.428 221.968C428.296 225.452 441.406 235.202 446.906 246.329" stroke="#A61414" stroke-linecap="round"/>
<path d="M404.522 226.982L410.41 261.132" stroke="#A61414" stroke-linecap="round"/>
<path d="M383.012 226.852C377.269 229.6 363.294 238.901 353.34 254.128" stroke="#A61414" stroke-linecap="round"/>
<path d="M383.012 226.852C377.269 229.6 363.294 238.901 353.34 254.128" stroke="#A61414" stroke-linecap="round"/>
<path d="M383.012 226.852C377.269 229.6 363.294 238.901 353.34 254.128" stroke="#A61414" stroke-linecap="round"/>
<path d="M383.012 226.852C377.269 229.6 363.294 238.901 353.34 254.128" stroke="#A61414" stroke-linecap="round"/>
<path d="M424.981 218.064C430.919 218.389 446.316 221.469 460.392 231.186" stroke="#A61414" stroke-linecap="round"/>
<path d="M424.981 218.064C430.919 218.389 446.316 221.469 460.392 231.186" stroke="#A61414" stroke-linecap="round"/>
<path d="M424.981 218.064C430.919 218.389 446.316 221.469 460.392 231.186" stroke="#A61414" stroke-linecap="round"/>
<path d="M424.981 218.064C430.919 218.389 446.316 221.469 460.392 231.186" stroke="#A61414" stroke-linecap="round"/>
<ellipse cx="403.424" cy="221.736" rx="18.5531" ry="3.29834" transform="rotate(-11.8271 403.424 221.736)" fill="#A61414"/>
<ellipse cx="403.358" cy="223.435" rx="10.7196" ry="1.64917" transform="rotate(-11.8271 403.358 223.435)" fill="#8D1111"/>
<path d="M180.327 484.995C175.296 492.979 181.115 496.585 186.767 494.713L192.868 491.146C193.662 488.215 193.433 482.108 186.214 481.104L180.327 484.995Z" fill="#A61414"/>
<g filter="url(#filter8_d)">
<path d="M177.672 459.611C166.075 492.383 192.961 507.063 209.806 507.559C212.12 507.627 213.943 505.762 214.083 503.452C215.961 472.319 196.194 461.524 183.638 456.851C181.222 455.951 178.532 457.18 177.672 459.611Z" fill="#CD4F4F"/>
</g>
<g filter="url(#filter9_d)">
<path d="M202.612 470.964C197.58 478.948 203.4 482.554 209.052 480.682L215.153 477.115C215.946 474.184 215.718 468.078 208.498 467.073L202.612 470.964Z" fill="#BC2828"/>
</g>
<g filter="url(#filter10_d)">
<path d="M177.931 449.222L183.478 457.614C181.526 461.699 178.372 462.153 177.04 461.87L172.974 455.719C172.412 454.869 172.065 453.849 172.361 452.874C172.903 451.087 174.233 449.65 175.444 448.703C176.248 448.075 177.369 448.371 177.931 449.222Z" fill="#BC2828"/>
</g>
<g filter="url(#filter11_d)">
<path d="M219.172 511.614L213.625 503.222C209.102 503.417 207.448 506.14 207.186 507.478L211.252 513.629C211.814 514.478 212.616 515.197 213.629 515.307C215.486 515.509 217.329 514.848 218.675 514.105C219.567 513.612 219.735 512.465 219.172 511.614Z" fill="#BC2828"/>
</g>
<path d="M205.082 483.457C207.345 490.142 208.656 497.999 208.855 502.181C208.896 503.036 209.929 503.624 210.643 503.153L212.605 501.856C212.847 501.696 213.01 501.441 213.034 501.151C213.31 497.911 212.823 489.757 210.206 482.045C210.044 481.568 209.545 481.295 209.053 481.407L205.814 482.138C205.227 482.271 204.889 482.887 205.082 483.457Z" fill="#307FC8" fill-opacity="0.35"/>
<path d="M198.752 473.375C193.353 468.578 186.44 464.216 182.575 462.381C181.8 462.013 181.659 460.826 182.375 460.352L184.459 458.975C184.699 458.816 184.994 458.766 185.269 458.854C188.433 459.869 195.946 463.556 202.163 469.085C202.542 469.422 202.597 469.991 202.299 470.401L200.247 473.22C199.895 473.704 199.2 473.772 198.752 473.375Z" fill="#307FC8" fill-opacity="0.35"/>
<path d="M208.542 480.399C203.353 477.295 203.305 474.505 202.891 471.482C202.837 471.092 203.007 470.704 203.335 470.487L207.932 467.448C208.274 467.222 208.72 467.229 209.062 467.454C212.023 469.402 213.625 469.687 215.004 476.429C215.089 476.844 214.897 477.265 214.531 477.479L209.537 480.399C209.23 480.579 208.847 480.582 208.542 480.399Z" fill="#307FC8" fill-opacity="0.35"/>
<path d="M182.768 457.737C178.912 451.87 179.171 451.643 176.994 449.003L176.745 448.747C176.41 448.402 175.877 448.344 175.476 448.609L175.167 448.814C175.098 448.859 175.035 448.913 174.98 448.973L173.99 450.057L173.329 450.931C173.299 450.97 173.273 451.011 173.249 451.054L172.686 452.084L172.349 452.875C172.298 452.995 172.267 453.123 172.282 453.252C172.419 454.459 173.92 456.519 177.204 457.412C177.253 457.426 177.304 457.435 177.345 457.465C177.764 457.782 179.244 460.268 179.88 461.096C180.028 461.289 180.253 461.289 180.456 461.155L181.326 460.58C181.394 460.535 181.457 460.481 181.513 460.42L182.421 459.425C182.475 459.366 182.522 459.301 182.56 459.231L182.812 458.771C182.99 458.446 182.971 458.047 182.768 457.737Z" fill="#307FC8" fill-opacity="0.35"/>
<path d="M213.304 503.741C217.264 509.482 217.572 509.33 219.186 512.321L219.355 512.77C219.518 513.205 219.359 513.694 218.971 513.951L218.621 514.182C218.561 514.222 218.496 514.255 218.428 514.281L217.687 514.567L216.844 514.891L216.185 515.094L215.662 515.206L214.54 515.379C214.373 515.404 214.199 515.391 214.051 515.31C212.89 514.676 211.081 512.303 211.489 508.984C211.495 508.933 211.506 508.883 211.493 508.834C211.359 508.329 209.623 506.037 209.098 505.142C208.975 504.933 209.061 504.726 209.261 504.589L210.125 504.002C210.192 503.956 210.265 503.919 210.342 503.89L211.609 503.425C211.684 503.397 211.761 503.379 211.841 503.37L212.359 503.31C212.729 503.268 213.093 503.435 213.304 503.741Z" fill="#307FC8" fill-opacity="0.35"/>
<path d="M196.501 467.318C200.3 470.203 196.77 471.336 195.558 470.736L190.152 466.856L183.909 463.064L186.019 462.71C186.836 462.573 187.678 462.681 188.434 463.011C194.073 465.478 192.454 464.491 188.536 461.665C184.368 458.661 189.817 461.154 191.005 461.402L195.201 463.752L197.223 465.211C194.412 463.61 192.702 464.433 196.501 467.318Z" fill="#D5D5D5" fill-opacity="0.42"/>
<path d="M210.305 499.716L206.098 486.53C205.962 486.105 205.93 485.644 206.002 485.183C206.05 484.88 206.46 484.801 206.564 485.075C208.675 490.638 210.003 492.448 209.127 488.007C208.458 484.611 209.74 487.713 210.695 490.024L210.71 490.059C211.227 491.309 211.675 492.607 211.973 493.949L212.472 496.198L213.024 501.113C212.229 498.278 210.837 493.709 211.624 498.113C212.412 502.516 210.683 500.867 210.305 499.716Z" fill="#D5D5D5" fill-opacity="0.42"/>
<path d="M209.408 474.304C213.832 478.342 208.832 478.407 204.778 477.205C203.502 476.063 202.856 471.734 203.131 472.95C203.406 474.166 208.816 475.206 207.107 473.829C203.347 470.799 208.435 467.396 209.774 467.957C213.986 469.721 214.723 474.759 214.835 475.461C211.067 468.665 204.674 469.984 209.408 474.304Z" fill="#D5D5D5" fill-opacity="0.42"/>
<path d="M215.814 511.612C214.779 510.815 213.613 506.014 212.322 512.445C212.296 512.782 212.491 513.866 213.135 514.545C214.076 515.538 214.277 515.449 215.151 515.276C213.039 507.94 215.466 511.95 216.735 512.864C217.845 513.664 217.478 511.719 217.361 509.696C217.35 509.503 217.286 509.316 217.171 509.158C216.068 507.64 215.014 506.25 214.789 505.838L213.587 504.119C213.55 504.068 213.49 504.1 213.519 504.156C214.086 505.268 215.751 507.977 216.543 510.37C217.196 513.49 216.499 512.139 215.814 511.612Z" fill="#D5D5D5" fill-opacity="0.42"/>
<path d="M176.501 453.056C176.889 454.299 181.002 457.067 174.491 456.014C174.164 455.92 173.382 455.536 172.868 454.758C172.56 454.293 172.325 454.08 172.307 453.654C172.279 452.989 173.144 452.763 173.691 453.143C178.441 456.446 176.033 453.164 175.644 451.759C175.279 450.445 177.076 451.318 178.95 452.121C179.129 452.198 179.283 452.324 179.39 452.487C180.416 454.041 181.185 455.456 181.494 455.811L182.779 457.756C182.814 457.808 182.763 457.852 182.72 457.806C181.872 456.888 179.903 454.389 177.926 452.812C175.215 451.111 176.244 452.233 176.501 453.056Z" fill="#D5D5D5" fill-opacity="0.42"/>
<path d="M187.915 495.118C191.312 495.591 199.695 495.903 206.058 493.374" stroke="#A61414" stroke-linecap="round"/>
<path d="M187.915 495.118C191.312 495.591 199.695 495.903 206.058 493.374" stroke="#A61414" stroke-linecap="round"/>
<path d="M179.237 481.99C179.989 478.652 182.63 470.787 187.186 466.022" stroke="#A61414" stroke-linecap="round"/>
<path d="M184.61 488.919L200.384 479.191" stroke="#A61414" stroke-linecap="round"/>
<path d="M188.051 498.522C190.332 500.508 197.166 504.795 206.248 506.058" stroke="#A61414" stroke-linecap="round"/>
<path d="M188.051 498.522C190.332 500.508 197.166 504.795 206.248 506.058" stroke="#A61414" stroke-linecap="round"/>
<path d="M188.051 498.522C190.332 500.508 197.166 504.795 206.248 506.058" stroke="#A61414" stroke-linecap="round"/>
<path d="M188.051 498.522C190.332 500.508 197.166 504.795 206.248 506.058" stroke="#A61414" stroke-linecap="round"/>
<path d="M176.908 481.666C176.1 478.954 175.102 471.458 177.57 463.169" stroke="#A61414" stroke-linecap="round"/>
<path d="M176.908 481.666C176.1 478.954 175.102 471.458 177.57 463.169" stroke="#A61414" stroke-linecap="round"/>
<path d="M176.908 481.666C176.1 478.954 175.102 471.458 177.57 463.169" stroke="#A61414" stroke-linecap="round"/>
<path d="M176.908 481.666C176.1 478.954 175.102 471.458 177.57 463.169" stroke="#A61414" stroke-linecap="round"/>
<ellipse cx="182.219" cy="490.499" rx="8.74311" ry="1.76409" transform="rotate(-123.464 182.219 490.499)" fill="#A61414"/>
<ellipse cx="183.062" cy="490.175" rx="5.05157" ry="0.882046" transform="rotate(-123.464 183.062 490.175)" fill="#8D1111"/>
<path d="M657.723 317.408C662.505 313.79 660.135 309.388 656.51 308.707L652.218 309.005C651.052 310.694 649.677 314.856 653.47 317.997L657.723 317.408Z" fill="#A61414"/>
<g filter="url(#filter12_d)">
<path d="M654.51 333.242C665.847 317.066 657.078 300.46 648.578 293.557C646.496 291.866 643.572 292.893 642.604 295.395C635.788 312.997 642.032 325.687 647.507 333.209C649.257 335.614 652.803 335.678 654.51 333.242Z" fill="#CD4F4F"/>
</g>
<g filter="url(#filter13_d)">
<path d="M641.796 319.168C646.578 315.55 644.208 311.148 640.584 310.467L636.291 310.765C635.125 312.454 633.75 316.616 637.544 319.757L641.796 319.168Z" fill="#BC2828"/>
</g>
<g filter="url(#filter14_d)">
<path d="M650.204 341.759L649.219 334.641C651.317 332.577 653.195 333.352 653.871 333.998L654.615 339.377C654.733 340.224 654.682 341.131 654.137 341.791C653.574 342.473 652.844 342.902 652.149 343.159C651.211 343.504 650.342 342.75 650.204 341.759Z" fill="#BC2828"/>
</g>
<g filter="url(#filter15_d)">
<path d="M642.586 286.711L643.572 293.829C646.151 295.246 647.747 293.991 648.223 293.186L647.478 287.806C647.361 286.959 647.066 286.1 646.363 285.613C645.636 285.109 644.817 284.894 644.078 284.837C643.081 284.759 642.449 285.721 642.586 286.711Z" fill="#BC2828"/>
</g>
<path d="M643.521 309.533C643.916 304.616 645.001 299.379 645.877 296.504C646.112 295.731 645.443 294.865 644.643 294.976L644.048 295.058C643.723 295.103 643.441 295.301 643.309 295.601C642.35 297.793 640.716 303.204 640.281 309.039C640.247 309.496 640.538 309.913 640.976 310.049L642.21 310.432C642.832 310.625 643.469 310.182 643.521 309.533Z" fill="#307FC8" fill-opacity="0.35"/>
<path d="M644.699 319.284C646.467 324.018 649.021 328.881 650.696 331.456C651.138 332.136 650.73 333.157 649.927 333.268L649.246 333.363C648.923 333.407 648.6 333.295 648.391 333.045C646.83 331.172 643.688 326.309 641.627 320.695C641.468 320.262 641.636 319.778 642.024 319.529L643.199 318.774C643.744 318.424 644.473 318.677 644.699 319.284Z" fill="#307FC8" fill-opacity="0.35"/>
<path d="M640.898 311.01C642.848 314.61 642.313 316.466 641.821 318.505C641.722 318.913 641.386 319.225 640.97 319.283L638.266 319.657C637.835 319.717 637.416 319.49 637.216 319.104C636.115 316.984 635.371 316.136 636.161 311.527C636.238 311.079 636.615 310.743 637.068 310.711L639.972 310.509C640.351 310.483 640.716 310.675 640.898 311.01Z" fill="#307FC8" fill-opacity="0.35"/>
<path d="M649.659 334.886C650.359 340.046 650.164 340.121 650.73 342.618L650.788 342.814C650.9 343.191 651.271 343.43 651.66 343.376C651.74 343.365 651.817 343.342 651.89 343.307L652.67 342.94L653.223 342.602C653.271 342.573 653.316 342.54 653.358 342.503L653.899 342.031L654.239 341.664C654.326 341.571 654.397 341.462 654.425 341.338C654.619 340.464 654.272 338.622 652.697 336.939C652.663 336.902 652.626 336.865 652.608 336.819C652.461 336.434 652.266 334.554 652.119 333.698C652.072 333.422 651.852 333.298 651.574 333.336L651.231 333.384C651.131 333.397 651.034 333.426 650.942 333.469L650.316 333.764C650.232 333.803 650.154 333.854 650.085 333.915L649.993 333.995C649.739 334.217 649.614 334.552 649.659 334.886Z" fill="#307FC8" fill-opacity="0.35"/>
<path d="M643.865 293.507C643.073 288.398 642.864 288.381 642.698 285.842L642.71 285.585C642.728 285.184 643.03 284.852 643.428 284.797C643.501 284.787 643.575 284.786 643.649 284.796L644.09 284.853L644.642 284.924L645.06 285.014L645.381 285.118L645.96 285.35C646.12 285.414 646.264 285.516 646.347 285.667C646.821 286.533 647.201 288.666 646.195 290.687C646.173 290.732 646.148 290.777 646.144 290.827C646.113 291.236 646.459 293.081 646.561 293.938C646.594 294.215 646.42 294.397 646.144 294.439L645.798 294.493C645.699 294.508 645.598 294.509 645.499 294.494L644.814 294.393C644.723 294.379 644.634 294.353 644.55 294.315L644.442 294.266C644.134 294.127 643.917 293.841 643.865 293.507Z" fill="#307FC8" fill-opacity="0.35"/>
<path d="M644.318 323.697C642.902 320.469 645.157 320.918 645.688 321.734L647.758 326.178L650.32 330.849L649.389 330.493C648.677 330.221 648.061 329.738 647.615 329.114C645.253 325.811 645.919 327.041 647.386 330.202C648.979 333.636 646.543 330.106 645.939 329.533L644.168 326.527L643.396 324.86C644.575 326.891 645.735 326.926 644.318 323.697Z" fill="#D5D5D5" fill-opacity="0.42"/>
<path d="M644.567 297.31L643.669 307.644C643.645 307.924 643.565 308.193 643.434 308.434C643.333 308.619 643.051 308.519 643.06 308.302C643.241 303.919 642.943 302.293 642.344 305.543C641.912 307.883 641.925 305.83 641.956 304.023C641.978 302.749 642.07 301.471 642.274 300.226L642.488 298.921L643.389 295.445C643.136 297.613 642.79 301.144 643.433 297.93C644.077 294.716 644.638 296.411 644.567 297.31Z" fill="#D5D5D5" fill-opacity="0.42"/>
<path d="M638.814 314.61C637.332 310.397 640.146 312.064 642.12 314.254C642.553 315.454 641.849 318.57 641.994 317.663C642.14 316.756 639.367 314.21 639.985 315.715C641.344 319.027 637.658 319.563 637.047 318.729C635.123 316.109 635.951 312.488 636.061 311.98C636.497 317.814 640.4 319.118 638.814 314.61Z" fill="#D5D5D5" fill-opacity="0.42"/>
<path d="M644.412 287.47C644.795 288.357 644.266 291.966 646.571 288.107C646.669 287.89 646.827 287.099 646.633 286.424C646.351 285.439 646.216 285.429 645.685 285.246C645.061 290.875 644.69 287.362 644.204 286.317C643.784 285.41 643.511 286.806 643.085 288.187C643.036 288.344 643.024 288.509 643.052 288.67C643.295 290.054 643.54 291.331 643.565 291.682L643.814 293.243C643.821 293.281 643.863 293.278 643.861 293.239C643.817 292.3 643.553 289.921 643.698 288.051C644.101 285.741 644.158 286.883 644.412 287.47Z" fill="#D5D5D5" fill-opacity="0.42"/>
<path d="M652.003 340.076C652.092 339.112 650.471 335.854 653.856 338.785C654.016 338.96 654.36 339.484 654.456 340.18C654.469 340.272 654.482 340.355 654.495 340.431C654.617 341.158 653.66 341.083 653.324 340.426C651.807 337.46 652.285 340.221 652.164 341.237C652.046 342.231 651.267 341.061 650.423 339.892C650.328 339.76 650.265 339.607 650.243 339.445C650.053 338.065 649.972 336.867 649.887 336.526L649.646 334.785C649.641 334.746 649.682 334.736 649.692 334.774C649.941 335.68 650.428 338.023 651.146 339.752C652.244 341.817 651.945 340.714 652.003 340.076Z" fill="#D5D5D5" fill-opacity="0.42"/>
<path d="M657.032 307.648C655.156 306.095 650.305 302.861 645.906 302.351" stroke="#A61414" stroke-linecap="round"/>
<path d="M657.032 307.648C655.156 306.095 650.305 302.861 645.906 302.351" stroke="#A61414" stroke-linecap="round"/>
<path d="M658.74 319.996C657.435 322.072 653.846 326.651 649.933 328.362" stroke="#A61414" stroke-linecap="round"/>
<path d="M657.372 313.194L645.575 314.36" stroke="#A61414" stroke-linecap="round"/>
<path d="M657.183 304.836C656.355 302.621 653.443 297.151 648.427 292.997" stroke="#A61414" stroke-linecap="round"/>
<path d="M657.183 304.836C656.355 302.621 653.443 297.151 648.427 292.997" stroke="#A61414" stroke-linecap="round"/>
<path d="M657.183 304.836C656.355 302.621 653.443 297.151 648.427 292.997" stroke="#A61414" stroke-linecap="round"/>
<path d="M657.183 304.836C656.355 302.621 653.443 297.151 648.427 292.997" stroke="#A61414" stroke-linecap="round"/>
<path d="M659.165 321.209C658.938 323.406 657.587 329.034 653.99 333.972" stroke="#A61414" stroke-linecap="round"/>
<path d="M659.165 321.209C658.938 323.406 657.587 329.034 653.99 333.972" stroke="#A61414" stroke-linecap="round"/>
<path d="M659.165 321.209C658.938 323.406 657.587 329.034 653.99 333.972" stroke="#A61414" stroke-linecap="round"/>
<path d="M659.165 321.209C658.938 323.406 657.587 329.034 653.99 333.972" stroke="#A61414" stroke-linecap="round"/>
<ellipse cx="659.188" cy="312.942" rx="6.92547" ry="1.12813" transform="rotate(82.121 659.188 312.942)" fill="#A61414"/>
<ellipse cx="658.608" cy="312.867" rx="4.00138" ry="0.564066" transform="rotate(82.121 658.608 312.867)" fill="#8D1111"/>
</g>
<circle cx="273.232" cy="684" r="115.5" fill="#9093A7"/>
<ellipse cx="355.232" cy="671" rx="14.5" ry="22.5" transform="rotate(-7.71288 355.232 671)" fill="#ADB2C2"/>
<ellipse cx="308.732" cy="641.5" rx="9" ry="12" transform="rotate(-19.562 308.732 641.5)" fill="#ADB2C2"/>
<ellipse cx="343.732" cy="617" rx="6" ry="7.5" transform="rotate(-22.7547 343.732 617)" fill="#ADB2C2"/>
<ellipse cx="299.961" cy="770.528" rx="14.5" ry="9.5" transform="rotate(-26.8707 299.961 770.528)" fill="#ADB2C2"/>
<path d="M212.26 696.516C212.307 696.606 212.34 696.703 212.358 696.802C215.103 711.917 223.005 731.917 210.437 738.475C197.828 745.055 180.919 737.574 172.669 721.766C164.42 705.958 167.954 687.808 180.563 681.228C193.135 674.668 204.019 680.809 212.26 696.516Z" fill="#ADB2C2"/>
<ellipse cx="347.232" cy="719.5" rx="6.5" ry="9" transform="rotate(9.63836 347.232 719.5)" fill="#ADB2C2"/>
<defs>
<filter id="filter0_d" x="37.7324" y="27.6045" width="85" height="45.5721" filterUnits="userSpaceOnUse" color-interpolation-filters="sRGB">
<feFlood flood-opacity="0" result="BackgroundImageFix"/>
<feColorMatrix in="SourceAlpha" type="matrix" values="0 0 0 0 0 0 0 0 0 0 0 0 0 0 0 0 0 0 127 0"/>
<feOffset dy="9"/>
<feGaussianBlur stdDeviation="2"/>
<feColorMatrix type="matrix" values="0 0 0 0 0 0 0 0 0 0 0 0 0 0 0 0 0 0 0.03 0"/>
<feBlend mode="normal" in2="BackgroundImageFix" result="effect1_dropShadow"/>
<feBlend mode="normal" in="SourceGraphic" in2="effect1_dropShadow" result="shape"/>
</filter>
<filter id="filter1_d" x="74.3398" y="41.3466" width="14.634" height="15.4096" filterUnits="userSpaceOnUse" color-interpolation-filters="sRGB">
<feFlood flood-opacity="0" result="BackgroundImageFix"/>
<feColorMatrix in="SourceAlpha" type="matrix" values="0 0 0 0 0 0 0 0 0 0 0 0 0 0 0 0 0 0 127 0"/>
<feOffset dy="2"/>
<feGaussianBlur stdDeviation="2"/>
<feColorMatrix type="matrix" values="0 0 0 0 0 0 0 0 0 0 0 0 0 0 0 0 0 0 0.1 0"/>
<feBlend mode="normal" in2="BackgroundImageFix" result="effect1_dropShadow"/>
<feBlend mode="normal" in="SourceGraphic" in2="effect1_dropShadow" result="shape"/>
</filter>
<filter id="filter2_d" x="89.3081" y="37.6512" width="14.7313" height="11.681" filterUnits="userSpaceOnUse" color-interpolation-filters="sRGB">
<feFlood flood-opacity="0" result="BackgroundImageFix"/>
<feColorMatrix in="SourceAlpha" type="matrix" values="0 0 0 0 0 0 0 0 0 0 0 0 0 0 0 0 0 0 127 0"/>
<feOffset dy="3"/>
<feGaussianBlur stdDeviation="2"/>
<feColorMatrix type="matrix" values="0 0 0 0 0 0 0 0 0 0 0 0 0 0 0 0 0 0 0.1 0"/>
<feBlend mode="normal" in2="BackgroundImageFix" result="effect1_dropShadow"/>
<feBlend mode="normal" in="SourceGraphic" in2="effect1_dropShadow" result="shape"/>
</filter>
<filter id="filter3_d" x="57.5962" y="38.3157" width="14.8478" height="11.9177" filterUnits="userSpaceOnUse" color-interpolation-filters="sRGB">
<feFlood flood-opacity="0" result="BackgroundImageFix"/>
<feColorMatrix in="SourceAlpha" type="matrix" values="0 0 0 0 0 0 0 0 0 0 0 0 0 0 0 0 0 0 127 0"/>
<feOffset dx="-2" dy="2"/>
<feGaussianBlur stdDeviation="2"/>
<feColorMatrix type="matrix" values="0 0 0 0 0 0 0 0 0 0 0 0 0 0 0 0 0 0 0.1 0"/>
<feBlend mode="normal" in2="BackgroundImageFix" result="effect1_dropShadow"/>
<feBlend mode="normal" in="SourceGraphic" in2="effect1_dropShadow" result="shape"/>
</filter>
<filter id="filter4_d" x="327.596" y="201.953" width="149.403" height="95.904" filterUnits="userSpaceOnUse" color-interpolation-filters="sRGB">
<feFlood flood-opacity="0" result="BackgroundImageFix"/>
<feColorMatrix in="SourceAlpha" type="matrix" values="0 0 0 0 0 0 0 0 0 0 0 0 0 0 0 0 0 0 127 0"/>
<feOffset dx="-6" dy="3"/>
<feGaussianBlur stdDeviation="2.5"/>
<feColorMatrix type="matrix" values="0 0 0 0 0 0 0 0 0 0 0 0 0 0 0 0 0 0 0.12 0"/>
<feBlend mode="normal" in2="BackgroundImageFix" result="effect1_dropShadow"/>
<feBlend mode="normal" in="SourceGraphic" in2="effect1_dropShadow" result="shape"/>
</filter>
<filter id="filter5_d" x="393.463" y="258.454" width="38.9629" height="41.618" filterUnits="userSpaceOnUse" color-interpolation-filters="sRGB">
<feFlood flood-opacity="0" result="BackgroundImageFix"/>
<feColorMatrix in="SourceAlpha" type="matrix" values="0 0 0 0 0 0 0 0 0 0 0 0 0 0 0 0 0 0 127 0"/>
<feOffset dy="2"/>
<feGaussianBlur stdDeviation="2"/>
<feColorMatrix type="matrix" values="0 0 0 0 0 0 0 0 0 0 0 0 0 0 0 0 0 0 0.1 0"/>
<feBlend mode="normal" in2="BackgroundImageFix" result="effect1_dropShadow"/>
<feBlend mode="normal" in="SourceGraphic" in2="effect1_dropShadow" result="shape"/>
</filter>
<filter id="filter6_d" x="456.682" y="224.915" width="38.3442" height="27.8588" filterUnits="userSpaceOnUse" color-interpolation-filters="sRGB">
<feFlood flood-opacity="0" result="BackgroundImageFix"/>
<feColorMatrix in="SourceAlpha" type="matrix" values="0 0 0 0 0 0 0 0 0 0 0 0 0 0 0 0 0 0 127 0"/>
<feOffset dy="3"/>
<feGaussianBlur stdDeviation="2"/>
<feColorMatrix type="matrix" values="0 0 0 0 0 0 0 0 0 0 0 0 0 0 0 0 0 0 0.1 0"/>
<feBlend mode="normal" in2="BackgroundImageFix" result="effect1_dropShadow"/>
<feBlend mode="normal" in="SourceGraphic" in2="effect1_dropShadow" result="shape"/>
</filter>
<filter id="filter7_d" x="319.092" y="252.308" width="38.3442" height="27.8588" filterUnits="userSpaceOnUse" color-interpolation-filters="sRGB">
<feFlood flood-opacity="0" result="BackgroundImageFix"/>
<feColorMatrix in="SourceAlpha" type="matrix" values="0 0 0 0 0 0 0 0 0 0 0 0 0 0 0 0 0 0 127 0"/>
<feOffset dx="-2" dy="2"/>
<feGaussianBlur stdDeviation="2"/>
<feColorMatrix type="matrix" values="0 0 0 0 0 0 0 0 0 0 0 0 0 0 0 0 0 0 0.1 0"/>
<feBlend mode="normal" in2="BackgroundImageFix" result="effect1_dropShadow"/>
<feBlend mode="normal" in="SourceGraphic" in2="effect1_dropShadow" result="shape"/>
</filter>
<filter id="filter8_d" x="152.94" y="447.642" width="70.8803" height="77.473" filterUnits="userSpaceOnUse" color-interpolation-filters="sRGB">
<feFlood flood-opacity="0" result="BackgroundImageFix"/>
<feColorMatrix in="SourceAlpha" type="matrix" values="0 0 0 0 0 0 0 0 0 0 0 0 0 0 0 0 0 0 127 0"/>
<feOffset dx="-6" dy="3"/>
<feGaussianBlur stdDeviation="2.5"/>
<feColorMatrix type="matrix" values="0 0 0 0 0 0 0 0 0 0 0 0 0 0 0 0 0 0 0.12 0"/>
<feBlend mode="normal" in2="BackgroundImageFix" result="effect1_dropShadow"/>
<feBlend mode="normal" in="SourceGraphic" in2="effect1_dropShadow" result="shape"/>
</filter>
<filter id="filter9_d" x="194.085" y="463.406" width="27.5793" height="26.6005" filterUnits="userSpaceOnUse" color-interpolation-filters="sRGB">
<feFlood flood-opacity="0" result="BackgroundImageFix"/>
<feColorMatrix in="SourceAlpha" type="matrix" values="0 0 0 0 0 0 0 0 0 0 0 0 0 0 0 0 0 0 127 0"/>
<feOffset dy="2"/>
<feGaussianBlur stdDeviation="2"/>
<feColorMatrix type="matrix" values="0 0 0 0 0 0 0 0 0 0 0 0 0 0 0 0 0 0 0.1 0"/>
<feBlend mode="normal" in2="BackgroundImageFix" result="effect1_dropShadow"/>
<feBlend mode="normal" in="SourceGraphic" in2="effect1_dropShadow" result="shape"/>
</filter>
<filter id="filter10_d" x="166.495" y="446.713" width="21.693" height="23.231" filterUnits="userSpaceOnUse" color-interpolation-filters="sRGB">
<feFlood flood-opacity="0" result="BackgroundImageFix"/>
<feColorMatrix in="SourceAlpha" type="matrix" values="0 0 0 0 0 0 0 0 0 0 0 0 0 0 0 0 0 0 127 0"/>
<feOffset dy="3"/>
<feGaussianBlur stdDeviation="2"/>
<feColorMatrix type="matrix" values="0 0 0 0 0 0 0 0 0 0 0 0 0 0 0 0 0 0 0.1 0"/>
<feBlend mode="normal" in2="BackgroundImageFix" result="effect1_dropShadow"/>
<feBlend mode="normal" in="SourceGraphic" in2="effect1_dropShadow" result="shape"/>
</filter>
<filter id="filter11_d" x="200.477" y="500.148" width="21.693" height="23.231" filterUnits="userSpaceOnUse" color-interpolation-filters="sRGB">
<feFlood flood-opacity="0" result="BackgroundImageFix"/>
<feColorMatrix in="SourceAlpha" type="matrix" values="0 0 0 0 0 0 0 0 0 0 0 0 0 0 0 0 0 0 127 0"/>
<feOffset dx="-2" dy="2"/>
<feGaussianBlur stdDeviation="2"/>
<feColorMatrix type="matrix" values="0 0 0 0 0 0 0 0 0 0 0 0 0 0 0 0 0 0 0.1 0"/>
<feBlend mode="normal" in2="BackgroundImageFix" result="effect1_dropShadow"/>
<feBlend mode="normal" in="SourceGraphic" in2="effect1_dropShadow" result="shape"/>
</filter>
<filter id="filter12_d" x="625.998" y="289.265" width="36.4516" height="54.9548" filterUnits="userSpaceOnUse" color-interpolation-filters="sRGB">
<feFlood flood-opacity="0" result="BackgroundImageFix"/>
<feColorMatrix in="SourceAlpha" type="matrix" values="0 0 0 0 0 0 0 0 0 0 0 0 0 0 0 0 0 0 127 0"/>
<feOffset dx="-6" dy="3"/>
<feGaussianBlur stdDeviation="2.5"/>
<feColorMatrix type="matrix" values="0 0 0 0 0 0 0 0 0 0 0 0 0 0 0 0 0 0 0.12 0"/>
<feBlend mode="normal" in2="BackgroundImageFix" result="effect1_dropShadow"/>
<feBlend mode="normal" in="SourceGraphic" in2="effect1_dropShadow" result="shape"/>
</filter>
<filter id="filter13_d" x="630.476" y="307.723" width="18.5905" height="18.2861" filterUnits="userSpaceOnUse" color-interpolation-filters="sRGB">
<feFlood flood-opacity="0" result="BackgroundImageFix"/>
<feColorMatrix in="SourceAlpha" type="matrix" values="0 0 0 0 0 0 0 0 0 0 0 0 0 0 0 0 0 0 127 0"/>
<feOffset dy="2"/>
<feGaussianBlur stdDeviation="2"/>
<feColorMatrix type="matrix" values="0 0 0 0 0 0 0 0 0 0 0 0 0 0 0 0 0 0 0.1 0"/>
<feBlend mode="normal" in2="BackgroundImageFix" result="effect1_dropShadow"/>
<feBlend mode="normal" in="SourceGraphic" in2="effect1_dropShadow" result="shape"/>
</filter>
<filter id="filter14_d" x="645.086" y="332.037" width="14.0005" height="18.3922" filterUnits="userSpaceOnUse" color-interpolation-filters="sRGB">
<feFlood flood-opacity="0" result="BackgroundImageFix"/>
<feColorMatrix in="SourceAlpha" type="matrix" values="0 0 0 0 0 0 0 0 0 0 0 0 0 0 0 0 0 0 127 0"/>
<feOffset dy="3"/>
<feGaussianBlur stdDeviation="2"/>
<feColorMatrix type="matrix" values="0 0 0 0 0 0 0 0 0 0 0 0 0 0 0 0 0 0 0.1 0"/>
<feBlend mode="normal" in2="BackgroundImageFix" result="effect1_dropShadow"/>
<feBlend mode="normal" in="SourceGraphic" in2="effect1_dropShadow" result="shape"/>
</filter>
<filter id="filter15_d" x="636.355" y="282.398" width="14.0005" height="18.3922" filterUnits="userSpaceOnUse" color-interpolation-filters="sRGB">
<feFlood flood-opacity="0" result="BackgroundImageFix"/>
<feColorMatrix in="SourceAlpha" type="matrix" values="0 0 0 0 0 0 0 0 0 0 0 0 0 0 0 0 0 0 127 0"/>
<feOffset dx="-2" dy="2"/>
<feGaussianBlur stdDeviation="2"/>
<feColorMatrix type="matrix" values="0 0 0 0 0 0 0 0 0 0 0 0 0 0 0 0 0 0 0.1 0"/>
<feBlend mode="normal" in2="BackgroundImageFix" result="effect1_dropShadow"/>
<feBlend mode="normal" in="SourceGraphic" in2="effect1_dropShadow" result="shape"/>
</filter>
</defs>
</svg>
