<svg width="4091" height="4082" viewBox="0 0 4091 4082" fill="none" xmlns="http://www.w3.org/2000/svg">
<circle cx="2039.5" cy="2042.5" r="2039.5" fill="#866B5B"/>
<path d="M67 2545.5C275.833 2660.83 768.3 2856.9 1067.5 2718.5C1441.5 2545.5 1348 2372.5 1787 2545.5C2226 2718.5 2923.5 2905.5 3103.5 2891C3247.5 2879.4 3648.17 2962.83 3830.5 3006C3763.5 3130.67 3617.9 3382.9 3571.5 3394.5C3513.5 3409 2952 3308.5 2628.5 3236.5C2305 3164.5 2160.5 3409 1614 3294C1067.5 3179 852 3020.5 571 3056.5C350.598 3084.74 352.502 3184.49 382.191 3233.62C382.797 3234.59 383.4 3235.55 384 3236.5C383.387 3235.56 382.783 3234.6 382.191 3233.62C275.942 3064.27 67 2694.25 67 2545.5Z" fill="#411A1A"/>
<path d="M67 2545.5C275.833 2660.83 768.3 2856.9 1067.5 2718.5C1441.5 2545.5 1348 2372.5 1787 2545.5C2226 2718.5 2923.5 2905.5 3103.5 2891C3247.5 2879.4 3648.17 2962.83 3830.5 3006C3763.5 3130.67 3617.9 3382.9 3571.5 3394.5C3513.5 3409 2952 3308.5 2628.5 3236.5C2305 3164.5 2160.5 3409 1614 3294C1067.5 3179 852 3020.5 571 3056.5C346.2 3085.3 352.667 3188.5 384 3236.5C278.333 3068.5 67 2695.1 67 2545.5Z" stroke="black"/>
<path d="M1247 2869.5C1139 2704 1513.5 2761.5 1564 2754.5C2032 2790.5 2276 2991.5 2226 3078C2176 3164.5 1988.5 3128.5 1686 3150C1383.5 3171.5 1355 3035 1247 2869.5Z" fill="#6F1F1F"/>
<path d="M779.5 2524C658.7 2575.6 215.833 2315.17 9.5 2178.5V1783C9.5 1696.5 499 1948.5 650 2063.5C801 2178.5 1211 1977 1362.5 2063.5C1514 2150 2269 2027.5 2413 2027.5C2557 2027.5 2801.5 2114 2981.5 2178.5C3161.5 2243 3434.5 2114 3614.5 2027.5C3758.5 1958.3 3991.17 2056.33 4089.5 2114L4032 2452C3991.17 2454.5 3866.3 2494 3693.5 2632C3477.5 2804.5 2053 2358.5 1844.5 2337C1636 2315.5 1477.5 2178.5 1254.5 2229C1031.5 2279.5 930.5 2459.5 779.5 2524Z" fill="#5E2828" stroke="black"/>
<path d="M1412.5 3495.5C1072.9 3311.5 743.333 3418.83 621 3495.5C1691.4 4543.1 3154 3956 3456 3495.5C3331.33 3495.5 3074.8 3524.3 3046 3639.5C3010 3783.5 2420 3833.5 2276 3848C2132 3862.5 1837 3725.5 1412.5 3495.5Z" fill="#4E2626"/>
<path d="M887.5 1437.5C547.9 1425.9 290.333 1250.33 204 1164C244.4 1072 369.5 876.334 427 790.001C527.667 739.667 760.7 644.7 887.5 667.5C1046 696 1240 1020 1578 1027.5C1916 1035 2002.5 883.501 2226 790.001C2449.5 696.501 3003 797.001 3096.5 934.001C3190 1071 3772.5 962.501 3859 1106.5C3928.2 1221.7 4003.17 1475.83 4032 1588.5C3904.83 1552.5 3605.9 1471.9 3427.5 1437.5C3204.5 1394.5 2880.5 1603 2564 1732.5C2247.5 1862 2082 1437.5 1873 1344C1664 1250.5 1312 1452 887.5 1437.5Z" fill="#562A2A"/>
<path d="M1844.5 351.002C1679 286.002 1011 306.501 975 306.501C2011 -332.299 3074.5 168.5 3420 538.002C3357.67 521.335 3214.3 473.602 3139.5 416.002C3046 344.002 2830 401.502 2556.5 488.002C2283 574.502 2010 416.002 1844.5 351.002Z" fill="#673C3C"/>
</svg>
