<svg width="671" height="732" viewBox="0 0 671 732" fill="none" xmlns="http://www.w3.org/2000/svg">
<mask id="mask0" mask-type="alpha" maskUnits="userSpaceOnUse" x="141" y="94" width="530" height="530">
<circle cx="406" cy="359" r="265" fill="#DC6449"/>
</mask>
<g mask="url(#mask0)">
<circle cx="406" cy="359" r="265" fill="#DC6449"/>
<path d="M456.256 530.247C388.743 514.194 302.622 560.348 268 585.431C276.789 592.656 298.627 601.652 308.447 605.498C309.646 603.492 317.269 596.301 320.931 592.957C373.863 555.833 383.35 585.431 441.774 585.431C500.198 585.431 589.083 543.291 606.56 530.247C620.542 519.813 643.346 476.401 653 456C615.549 487.438 523.768 546.301 456.256 530.247Z" fill="#CC362D"/>
<path d="M383 622.5C427.667 611.333 519.3 590 528.5 594C465.3 626 405.167 626.333 383 622.5Z" fill="#CC362D"/>
<path d="M670 380C674.4 343.6 665.833 303 661 287C644.386 307.338 624.5 333.091 538.5 341.5C386 356.412 385.425 368.785 296 429C241.634 441.444 194.668 435.571 155.068 442.987C156.675 452.411 179.961 503.044 204.5 532C221.833 534.333 257.525 539.759 284 517C369.5 443.5 396.576 460.496 410 465C486 490.5 478.5 438 512 450.5C538.8 460.5 613.333 413.5 670 380Z" fill="#CC362D"/>
<path d="M370.5 247C310.5 276.6 196.5 297.333 147.5 303.5C143.833 319.833 137.6 357.4 142 379C152.5 405 243 375.5 286.5 379C330 382.5 332 299.5 438.5 313.5C523.7 324.7 615 280.167 650 256.5C644.833 242.333 626.6 206 595 174C574 212 546.5 207.5 499.5 211.5C452.5 215.5 445.5 210 370.5 247Z" fill="#CC362D"/>
<path d="M224.5 166.5C381 158 415.5 108.5 507 114.5L529.5 125L546.5 135C563 145.5 144.7 275.2 167.5 244C178.7 215.2 210.167 180.333 224.5 166.5Z" fill="#CC362D"/>
<path d="M441 96.5C415.17 105.938 319.757 115.376 271.937 130.697C295.005 114.805 360.712 86.5635 441 96.5Z" fill="#CC362D"/>
<circle cx="251.5" cy="455.5" r="15.5" fill="#DA4A41"/>
<circle cx="384.5" cy="271.5" r="17.5" fill="#DA4A41"/>
<circle cx="375.5" cy="373.5" r="8.5" fill="#DA4A41"/>
<circle cx="252" cy="359" r="28" fill="#DA4A41"/>
<circle cx="454.5" cy="476.5" r="15.5" fill="#DA4A41"/>
<circle cx="460" cy="360" r="29" fill="#DA4A41"/>
<path d="M385 471C385 495.853 364.853 516 340 516C315.147 516 295 495.853 295 471C295 446.147 315.147 426 340 426C364.853 426 385 446.147 385 471Z" fill="#DA4A41"/>
</g>
<mask id="mask1" mask-type="alpha" maskUnits="userSpaceOnUse" x="0" y="0" width="134" height="134">
<circle cx="67" cy="67" r="67" fill="#9093A7"/>
</mask>
<g mask="url(#mask1)">
<circle cx="66" cy="67" r="67" fill="#9093A7"/>
<ellipse cx="104.828" cy="69.8715" rx="22.6685" ry="20.7458" transform="rotate(-67.5572 104.828 69.8715)" fill="#ADB2C2"/>
<ellipse cx="42.9376" cy="101.945" rx="12" ry="10.2166" transform="rotate(21.819 42.9376 101.945)" fill="#ADB2C2"/>
<path d="M24.2506 43C20.6996 54.9083 11.5999 62.7067 3.92565 60.4183C-3.74855 58.1299 -7.09111 46.6213 -3.54016 34.713C0.0107901 22.8048 9.11058 15.0064 16.7848 17.2947C24.459 19.5831 27.8015 31.0918 24.2506 43Z" fill="#ADB2C2"/>
</g>
<circle cx="254.5" cy="616.5" r="115.5" fill="#9093A7"/>
<ellipse cx="336.5" cy="603.5" rx="14.5" ry="22.5" transform="rotate(-7.71288 336.5 603.5)" fill="#ADB2C2"/>
<ellipse cx="290" cy="574" rx="9" ry="12" transform="rotate(-19.562 290 574)" fill="#ADB2C2"/>
<ellipse cx="325" cy="549.5" rx="6" ry="7.5" transform="rotate(-22.7547 325 549.5)" fill="#ADB2C2"/>
<ellipse cx="281.228" cy="703.028" rx="14.5" ry="9.5" transform="rotate(-26.8707 281.228 703.028)" fill="#ADB2C2"/>
<path d="M193.599 629.153C196.318 644.285 204.314 664.395 191.705 670.975C179.096 677.555 162.186 670.074 153.937 654.266C145.688 638.457 149.222 620.308 161.831 613.728C174.44 607.148 185.349 613.345 193.599 629.153Z" fill="#ADB2C2"/>
<ellipse cx="328.5" cy="652" rx="6.5" ry="9" transform="rotate(9.63836 328.5 652)" fill="#ADB2C2"/>
</svg>
