<svg width="417" height="482" viewBox="0 0 417 482" fill="none" xmlns="http://www.w3.org/2000/svg">
<g filter="url(#filter0_d)">
<path d="M236.624 376.977C215.991 378.85 189.306 338.4 178.543 317.94L291.844 249.879C306.516 265.65 330.437 303.554 332.68 317.493C334.922 331.433 333.521 346.887 329.548 354.31C326.825 339.656 317.887 308.34 303.918 300.306C308.168 306.857 310.673 321.839 311.231 328.242C305.537 318.813 302.664 314.666 283.749 305.87C300.703 345.629 322.941 402.417 315.177 423.649C294.19 422.501 244.381 372.169 222.291 347.767C224.254 354.669 229.998 370.39 236.624 376.977Z" fill="#C90000" fill-opacity="0.67"/>
</g>
<g filter="url(#filter1_d)">
<path d="M221.951 361.206C205.648 357.818 186.339 323.151 179.469 309.293L281.368 247.751C292.198 257.663 308.677 278.969 313.919 287.648C320.048 297.796 332.628 326.668 328.282 332.649C327.69 322.12 301.597 285.335 290.441 281.071C293.339 285.411 304.433 306.89 304.144 311.566C300.34 305.269 287.227 296.519 271.869 292.287L272.011 292.68C281.954 320.176 299.98 370.025 292.136 387.934C273.136 386.91 230.069 341.516 213.842 326.105C214.711 330.982 216.996 357.126 221.951 361.206Z" fill="#FCD400" fill-opacity="0.64"/>
</g>
<g filter="url(#filter2_d)">
<path d="M212.902 348.657C198.745 342.87 185.263 310.42 180.323 299.953L274.181 243.268C282.888 250.298 291.228 261.034 296.808 267.837C302.387 274.64 315.226 291.638 317.693 304.854C312.65 296.503 288.974 271.529 279.547 269.006C281.747 272.226 295.808 291.18 295.194 294.913C289.588 290.579 275.545 281.51 262.441 279.337C266.034 301.495 276.205 335.793 271.643 355.827C249.857 350.603 223.344 320.293 209.087 310.643C209.472 314.446 207.126 329.353 212.902 348.657Z" fill="#FFE600"/>
</g>
<path d="M97.4614 181.253C73.6071 144.191 90.7829 80.5104 99.4841 59.8146C121.851 61.7467 185.641 76.5281 207.34 114.892C229.04 153.256 262.886 208.424 277.381 231.41C275.736 240.232 271.384 250.532 263.67 260.364C239.103 292.545 193.166 299.523 168.441 298.184C168.316 298.178 168.193 298.171 168.069 298.164C154.473 274.636 121.316 218.315 97.4614 181.253Z" fill="#C4C4C4"/>
<path d="M151.495 72.8865C139.375 121.97 103.255 119.423 86.5748 112.095C87.3579 99.2694 94.4991 71.6484 99.484 59.8145C112.278 60.9108 139.779 67.6098 151.495 72.8865Z" fill="#9B2020"/>
<path d="M136.538 344.325C109.025 282.371 118.763 241.754 127.121 229.147L168.175 297.731C159.887 303.91 143.715 331.137 136.538 344.325Z" fill="#D52020"/>
<path d="M333.508 225.366C291.481 172.177 251 161.89 235.951 163.419L277.543 231.679C286.869 227.219 318.495 225.579 333.508 225.366Z" fill="#D52020"/>
<path d="M172.197 307.434L169.04 297.945C196.3 299.863 257.034 290.976 277.33 232.543L284.528 239.592C286.206 241.153 290.79 247.281 293.079 247.663C272.032 315.079 206.369 322.825 174.822 319.084C175.549 316.88 172.797 309.646 172.197 307.434Z" fill="#C0ADAD"/>
<circle cx="166.676" cy="171.068" r="31.1724" transform="rotate(-31.1298 166.676 171.068)" fill="#C4C4C4" stroke="#707070" stroke-width="5"/>
<path d="M255.035 268.066L236.901 238.039C236.044 236.621 234.2 236.166 232.782 237.022L203.437 254.745C202.019 255.601 200.175 255.146 199.318 253.728L188.754 236.236C187.898 234.818 188.353 232.973 189.771 232.117L201.606 224.969C203.024 224.113 203.48 222.269 202.623 220.85L195.801 209.554C194.944 208.136 195.4 206.292 196.818 205.435L229.395 185.76C230.813 184.904 231.269 183.06 230.412 181.641L220.011 164.419C219.154 163.001 217.31 162.545 215.892 163.402L211.33 166.157C209.912 167.014 208.068 166.558 207.211 165.14L181.109 121.921C180.285 120.557 178.539 120.075 177.132 120.823L151.541 134.435C150.134 135.183 148.388 134.701 147.564 133.337L132.601 108.561" stroke="#B3B2B2"/>
<mask id="mask0" mask-type="alpha" maskUnits="userSpaceOnUse" x="124" y="129" width="85" height="84">
<circle cx="166.675" cy="171.068" r="30.5255" transform="rotate(-31.1298 166.675 171.068)" fill="#C4C4C4"/>
</mask>
<g mask="url(#mask0)">
<path d="M152.079 180.588C145.791 194.909 153.378 206.567 157.387 208.333C165.904 207.395 187.253 201.002 204.508 182.929C202.773 180.243 198.316 174.623 194.711 172.891C190.275 170.759 189.627 170.811 186.37 166.386C184.862 164.339 183.062 158.549 183.568 154.441C184.201 149.306 179.633 151.046 180.209 154.093C180.785 157.14 181.69 164.605 179.741 164.56C175.953 164.471 161.46 167.453 156.546 174.495C151.633 181.536 145.719 172.936 146.069 170.638C146.412 168.394 141.676 167.86 143.333 172.29C144.991 176.721 148.586 179.302 152.079 180.588Z" fill="#3CCD95"/>
<ellipse cx="160.521" cy="185.925" rx="1.74356" ry="4.06831" transform="rotate(-23.5799 160.521 185.925)" fill="#EAEAEA"/>
<ellipse cx="177.539" cy="177.005" rx="1.74356" ry="4.06831" transform="rotate(-23.5799 177.539 177.005)" fill="#EAEAEA"/>
<path d="M164.061 207.018L160.456 201.048C159.972 200.435 159.259 200.753 160.249 198.457C162.088 194.195 162.697 199.139 163.689 199.095C167.327 198.935 165.272 201.057 165.186 201.573L165.378 202.069L166.999 206.262L164.061 207.018Z" fill="#28EEA2"/>
<path d="M185.579 185.875C186.976 186.389 189.667 191.893 190.837 194.581L188.35 196.083L184.588 189.855C184.62 189.836 184.651 189.817 184.681 189.8C184.125 190.048 183.235 190.329 182.651 190.02C181.154 189.227 182.594 187.678 181.89 185.387C181.186 183.097 183.833 185.232 185.579 185.875Z" fill="#28EEA2"/>
<path d="M176.579 184.033C177.278 184.629 176.272 190.138 173.784 191.64C171.861 192.802 167.494 191.476 167.079 190.789C166.665 190.102 170.084 189.992 172.008 188.831C173.931 187.669 176.164 183.346 176.579 184.033Z" fill="black"/>
<path d="M169.029 191.705C170.553 192.99 175.745 193.529 176.437 187.231C174.436 192.849 170.777 192.12 169.029 191.705Z" fill="#9B1F1F"/>
<path d="M167.379 190.495C167.899 189.936 169.533 188.827 171.908 188.863C172.695 187.53 174.627 184.721 176.05 184.156C175.674 184.75 172.553 188.106 171.908 188.863C171.391 189.469 168.728 190.294 167.379 190.495Z" fill="#9B1F1F"/>
<path d="M171.908 188.863C169.533 188.827 167.899 189.936 167.379 190.495C168.728 190.294 171.391 189.469 171.908 188.863ZM171.908 188.863C172.695 187.53 174.627 184.721 176.05 184.156C175.674 184.75 172.553 188.106 171.908 188.863Z" stroke="#9B1F1F"/>
<path d="M183.617 164.682C182.716 164.007 181.124 164.758 180.147 164.567C179.17 164.376 179.181 166.913 180.239 167.728C181.296 168.543 183.753 167.908 184.296 167.203C184.733 165.96 184.268 165.17 183.617 164.682Z" fill="#C60000"/>
<path d="M184.296 167.203C184.772 165.974 184.252 165.19 183.617 164.682C183.617 164.682 185.175 162.378 186.673 162.722C188.171 163.066 189.09 168.992 186.968 169.017C184.845 169.042 184.296 167.203 184.296 167.203Z" fill="#C60000"/>
<path d="M180.147 164.567C179.177 164.345 179.208 166.88 180.239 167.728C180.239 167.728 180.543 168.897 178.455 169.281C176.368 169.665 176.13 163.672 177.534 163.047C178.937 162.422 180.147 164.567 180.147 164.567Z" fill="#C60000"/>
<path d="M180.147 164.567C181.124 164.758 182.716 164.007 183.617 164.682M180.147 164.567C179.17 164.376 179.181 166.913 180.239 167.728M180.147 164.567C181.117 164.789 182.738 163.978 183.617 164.682M180.147 164.567C179.177 164.345 179.208 166.88 180.239 167.728M180.147 164.567C180.147 164.567 178.937 162.422 177.534 163.047C176.13 163.672 176.368 169.665 178.455 169.281C180.543 168.897 180.239 167.728 180.239 167.728M183.617 164.682C184.268 165.17 184.733 165.96 184.296 167.203M183.617 164.682C184.252 165.19 184.772 165.974 184.296 167.203M183.617 164.682C183.617 164.682 185.175 162.378 186.673 162.722C188.171 163.066 189.09 168.992 186.968 169.017C184.845 169.042 184.296 167.203 184.296 167.203M184.296 167.203C183.753 167.908 181.296 168.543 180.239 167.728M184.296 167.203C183.73 167.891 181.27 168.577 180.239 167.728" stroke="#A51D1D"/>
<path d="M155.666 179.368C155.631 180.493 154.05 181.268 153.589 182.149C153.128 183.031 151.153 181.438 151.177 180.103C151.201 178.768 153.232 177.247 154.122 177.263C155.366 177.698 155.692 178.555 155.666 179.368Z" fill="#C60000"/>
<path d="M154.122 177.263C155.379 177.658 155.666 178.555 155.666 179.368C155.666 179.368 158.439 179.59 159.106 178.206C159.773 176.822 155.72 172.401 154.375 174.044C153.029 175.686 154.122 177.263 154.122 177.263Z" fill="#C60000"/>
<path d="M153.589 182.149C153.156 183.046 151.196 181.438 151.177 180.103C151.177 180.103 150.455 179.135 148.851 180.526C147.247 181.916 151.778 185.845 153.143 185.14C154.508 184.434 153.589 182.149 153.589 182.149Z" fill="#C60000"/>
<path d="M153.589 182.149C154.05 181.268 155.631 180.493 155.666 179.368M153.589 182.149C153.128 183.031 151.153 181.438 151.177 180.103M153.589 182.149C154.021 181.253 155.667 180.494 155.666 179.368M153.589 182.149C153.156 183.046 151.196 181.438 151.177 180.103M153.589 182.149C153.589 182.149 154.508 184.434 153.143 185.14C151.778 185.845 147.247 181.916 148.851 180.526C150.455 179.135 151.177 180.103 151.177 180.103M155.666 179.368C155.692 178.555 155.366 177.698 154.122 177.263M155.666 179.368C155.666 178.555 155.379 177.658 154.122 177.263M155.666 179.368C155.666 179.368 158.439 179.59 159.106 178.206C159.773 176.822 155.72 172.401 154.375 174.044C153.029 175.686 154.122 177.263 154.122 177.263M154.122 177.263C153.232 177.247 151.201 178.768 151.177 180.103M154.122 177.263C153.232 177.275 151.159 178.768 151.177 180.103" stroke="#A51D1D"/>
</g>
<defs>
<filter id="filter0_d" x="168.246" y="241.727" width="219.852" height="228.314" filterUnits="userSpaceOnUse" color-interpolation-filters="sRGB">
<feFlood flood-opacity="0" result="BackgroundImageFix"/>
<feColorMatrix in="SourceAlpha" type="matrix" values="0 0 0 0 0 0 0 0 0 0 0 0 0 0 0 0 0 0 127 0"/>
<feOffset dy="4"/>
<feGaussianBlur stdDeviation="5"/>
<feColorMatrix type="matrix" values="0 0 0 0 1 0 0 0 0 0 0 0 0 0 0 0 0 0 0.39 0"/>
<feBlend mode="normal" in2="BackgroundImageFix" result="effect1_dropShadow"/>
<feBlend mode="normal" in="SourceGraphic" in2="effect1_dropShadow" result="shape"/>
</filter>
<filter id="filter1_d" x="174.769" y="244.009" width="181.708" height="181.188" filterUnits="userSpaceOnUse" color-interpolation-filters="sRGB">
<feFlood flood-opacity="0" result="BackgroundImageFix"/>
<feColorMatrix in="SourceAlpha" type="matrix" values="0 0 0 0 0 0 0 0 0 0 0 0 0 0 0 0 0 0 127 0"/>
<feOffset dy="4"/>
<feGaussianBlur stdDeviation="2"/>
<feColorMatrix type="matrix" values="0 0 0 0 1 0 0 0 0 0.72 0 0 0 0 0 0 0 0 0.25 0"/>
<feBlend mode="normal" in2="BackgroundImageFix" result="effect1_dropShadow"/>
<feBlend mode="normal" in="SourceGraphic" in2="effect1_dropShadow" result="shape"/>
</filter>
<filter id="filter2_d" x="174.127" y="238.981" width="160.286" height="152.651" filterUnits="userSpaceOnUse" color-interpolation-filters="sRGB">
<feFlood flood-opacity="0" result="BackgroundImageFix"/>
<feColorMatrix in="SourceAlpha" type="matrix" values="0 0 0 0 0 0 0 0 0 0 0 0 0 0 0 0 0 0 127 0"/>
<feOffset dy="5"/>
<feGaussianBlur stdDeviation="2"/>
<feColorMatrix type="matrix" values="0 0 0 0 1 0 0 0 0 1 0 0 0 0 1 0 0 0 0.25 0"/>
<feBlend mode="normal" in2="BackgroundImageFix" result="effect1_dropShadow"/>
<feBlend mode="normal" in="SourceGraphic" in2="effect1_dropShadow" result="shape"/>
</filter>
</defs>
</svg>
