<svg width="4797" height="2028" viewBox="0 0 4797 2028" fill="none" xmlns="http://www.w3.org/2000/svg">
<circle cx="2344.5" cy="997.5" r="997.5" fill="#655D11"/>
<path d="M2680.5 94.4997C2672 144 1679 314 1635 300L1574 364C1795.83 371.333 2298.3 381.6 2533.5 364C2827.5 342 2933 219.5 2899.5 175C2872.7 139.4 2770 95.4996 2722 77.9997C2711 66.9997 2687.3 54.8997 2680.5 94.4997Z" fill="#4D4502"/>
<path d="M2916.5 475C3094.1 455.4 3103.17 370.5 3085.5 330.5L3138 400C3120.5 397.13 3082.7 408.113 3071.5 475C3057.5 558.607 2997 458.662 2899.5 519C2802 579.337 2639 549.5 2578 555C2517 560.5 2317 563.5 2253.5 580C2190 596.5 1859.5 597 1723.5 580C1614.7 566.4 1543.17 482 1521 441.5C1559 452.666 1679.9 478.299 1859.5 491.5C2084 508 2694.5 499.5 2916.5 475Z" fill="#4D4502"/>
<path d="M1843 821.5C1479.4 777.099 1404.83 682.666 1413 641C1355.4 773.799 1348.33 948 1352 1018.5C1355.67 1000 1381.9 960.2 1457.5 949C1552 935 1635 880 1804 880H2461.5C2533.5 880 2597.5 893.5 2744.5 880C2891.5 866.5 2994 821.5 3099.5 802C3183.9 786.4 3269.67 740.166 3302 719L3266 622C3229.83 628.333 3145.9 641 3099.5 641C3041.5 641 2966 680 2899.5 735.5C2833 791 2297.5 877 1843 821.5Z" fill="#4D4502"/>
<path d="M1673.5 1207C1589.1 1213.4 1424 1165.33 1352 1140.5C1400.8 1335.7 1442.67 1440.17 1457.5 1468C1457.5 1435.5 1480.8 1377.2 1574 1404C1690.5 1437.5 1745.5 1476 1762.5 1434.5C1776.1 1401.3 1921.5 1322.67 1992.5 1287.5C2091.5 1260.67 2301.1 1199.2 2347.5 1168C2405.5 1129 2680.5 1076.5 2869 1093.5C3057.5 1110.5 2977.5 1118.5 3071.5 1168C3165.5 1217.5 3329.5 1093.5 3343.5 1093.5C3354.7 1093.5 3348.17 997.166 3343.5 949C3317.67 967.5 3237.1 1007.3 3121.5 1018.5C2977 1032.5 2941.5 1018.5 2822 1004.5C2702.5 990.5 2533.5 1051.5 2361.5 1093.5C2189.5 1135.5 2198 1140.5 2023 1168C1848 1195.5 1779 1199 1673.5 1207Z" fill="#4D4502"/>
<path d="M1784.5 1626C1726 1642.5 1574 1595.5 1557 1592.5C1577 1650.1 1680 1744.17 1729 1784C1754 1771 1811.8 1735.1 1843 1695.5C1882 1646 2023 1626 2103.5 1626C2184 1626 2245 1592.5 2328.5 1592.5C2412 1592.5 2519.5 1606.5 2567 1626C2614.5 1645.5 2700 1684 2869 1626C3004.2 1579.6 3106.67 1584.33 3141 1592.5L3205 1498.5C3185.5 1498.5 3134.3 1492.4 3085.5 1468C3024.5 1437.5 3033 1468 2952.5 1468C2872 1468 2869 1498.5 2744.5 1520.5C2620 1542.5 2678 1512 2519.5 1498.5C2361 1485 2395 1468 2275.5 1468C2156 1468 2189.5 1493 1992.5 1540C1795.5 1587 1843 1609.5 1784.5 1626Z" fill="#4D4502"/>
<path d="M2156.5 1889.5C2061.3 1918.3 1952.17 1901.5 1909.5 1889.5C1931.9 1913.9 2018.5 1940.33 2059 1950.5C2091.5 1937.5 2169.8 1911.5 2223 1911.5C2289.5 1911.5 2328.5 1889.5 2422.5 1875.5C2516.5 1861.5 2567 1889.5 2622.5 1911.5C2666.9 1929.1 2755.67 1904.17 2794.5 1889.5C2819.33 1879.33 2866.3 1856.2 2855.5 1845C2842 1831 2744.5 1839.5 2694.5 1859C2644.5 1878.5 2567 1839.5 2392 1839.5C2217 1839.5 2275.5 1853.5 2156.5 1889.5Z" fill="#4D4502"/>
<path d="M1799.5 1649.5C-1994.44 2672.14 1392.5 1295 1392.5 1295L1838.5 1275L2523 1163.5L3048 968.501L3314.5 765.5C5330 146.5 5700.5 598.001 1799.5 1649.5Z" fill="#976F0A"/>
<path d="M942.499 1483.5C933.333 1521.17 948.399 1596.5 1082 1596.5C1249 1596.5 2609 1371 2845.5 1231C3082 1091 3538.5 806 3463.5 763C3437.44 748.061 3411.07 743.394 3387.66 744.069L3318.5 763C3370.5 789.5 3288.5 847 3266.5 913C3244.5 979 2814.5 1185 2756 1207C2697.5 1229 2128 1350 1992 1416C1856 1482 1764.5 1453 1569.5 1483.5C1420.53 1506.8 1200.44 1453.84 1096 1420.57L1228 1368.5C1244 1384.33 1291 1421.2 1351 1442C1426 1468 1569.5 1416 1610 1442C1650.5 1468 1797.5 1416 1830.5 1416C1863.5 1416 2153.5 1300.5 2245.5 1300.5C2337.5 1300.5 2594.5 1181 2660.5 1177.5C2726.5 1174 2786.5 1118.5 2892 1096.5C2997.5 1074.5 3119.5 913 3174.5 913C3218.5 913 3232.17 854.334 3233.5 825L3318.5 763C3331.7 754.891 3357.17 744.948 3387.66 744.069L3592.5 688C3606.83 670 3626.9 659.8 3592.5 763C3549.5 892 3561 935 3394 999.5C3227 1064 2846 1320.18 2786.5 1300.5C2727 1280.82 2292 1483.5 2109 1483.5C1926 1483.5 1620 1559 1351 1596.5C1082 1634 872.999 1661 861.999 1596.5C853.199 1544.9 911.999 1499.67 942.499 1483.5Z" fill="#765604"/>
<path d="M1569.5 1368.5C1408 1368.5 1351 1331.5 1316 1335.5L1386 1300.5C1474.17 1312.17 1663 1328.5 1713 1300.5C1763 1272.5 1932.17 1263.17 2010.5 1262L2157 1231L2421.5 1177.5L2579.5 1144.5L2719 1096.5L2579.5 1177.5C2476.67 1204.33 2260.7 1258.8 2219.5 1262C2168 1266 2036 1300.5 1911 1300.5C1786 1300.5 1731 1368.5 1569.5 1368.5Z" fill="#765604"/>
<path d="M636.499 1695.5C548.099 1663.5 599.666 1637.83 636.499 1629L824 1533.5C815.5 1547 803.6 1588.7 824 1647.5C844.4 1706.3 911.499 1689.33 942.499 1673.5L1294 1647.5L1555 1614.5L1713 1574C1791.33 1560.5 1960.5 1537.9 2010.5 1555.5C2060.5 1573.1 2202.67 1514.83 2267.5 1483.5C2378.83 1438.08 2613.3 1350.7 2660.5 1364.5C2707.7 1378.3 2893.17 1301.92 2980 1262C3051 1222.83 3207.7 1144.5 3266.5 1144.5C3340 1144.5 3592.5 999.5 3626.5 968C3660.5 936.5 3707 825 3722 733C3732.53 668.384 3705.82 659.675 3685.83 664.376L3678 667C3680.4 665.942 3683.05 665.029 3685.83 664.376L3766 637.5C3785.5 642.334 3837 655 3887 667C3949.5 682 3924 825 3887 825C3850 825 3755 935 3678 1019.5C3616.4 1087.1 2934.67 1315.05 2601.5 1420.57L2010.5 1596.5C1929.67 1616 1740.1 1653.5 1628.5 1647.5C1489 1640 1096 1728.5 1007.5 1728.5C919 1728.5 746.999 1735.5 636.499 1695.5Z" fill="#765604"/>
<path d="M495 1864.5C424.2 1883.7 411.833 1781.83 414.5 1728.5L530.499 1673.5C542.333 1691.83 572 1739.4 596 1783C626 1837.5 861.999 1771 942.499 1783C1023 1795 1523 1695.5 1493 1728.5C1463 1761.5 1041 1824.5 942.499 1864.5C843.999 1904.5 583.5 1840.5 495 1864.5Z" fill="#765604"/>
<path d="M126.499 1943.5C-6.70051 1967.5 142.333 1874.17 233.499 1824.5L355.5 1758.5C329.5 1780.5 275.3 1837.1 266.5 1887.5C255.5 1950.5 414.5 1887.5 453.5 1908C492.499 1928.5 549 1896.5 596 1887.5C633.599 1880.3 710.666 1898.17 744.5 1908L636.499 1943.5C601.166 1933.5 523.4 1919.5 495 1943.5C459.5 1973.5 292.999 1913.5 126.499 1943.5Z" fill="#765604"/>
<path d="M4034 733C4040.4 659.4 3938.67 620.334 3887 610L4057.5 563C4049.67 578.667 4034 615.5 4034 637.5C4034 665 4123.5 715.5 4170.5 793.5C4208.1 855.9 4165.5 899.167 4139.5 913L3722 1066.5C3736.67 1044.17 3795.4 982.2 3913 913C4060 826.5 4026 825 4034 733Z" fill="#765604"/>
<path d="M4190 536C4216.26 526.828 4256.19 517.343 4281.56 522.571L4377.5 508.5C4404.67 534.5 4438 596.7 4354 637.5C4270 678.3 4319 779.5 4354 825L4229 879V793.5C4229 762 4190 688 4170.5 637.5C4151 587 4280 637.5 4303 563C4310.74 537.925 4299.99 526.368 4281.56 522.571L4190 536Z" fill="#765604"/>
<path d="M4525.5 485C4546.82 479.746 4576.18 478.951 4584.14 497.682C4622.93 507.837 4660.07 521.744 4658 536C4654 563.5 4615 667 4564.5 711.5C4524.1 747.101 4449 781 4416.5 793.5C4443.67 751.334 4511.3 646.2 4564.5 563C4585.45 530.243 4589.3 509.846 4584.14 497.682C4563.07 492.166 4541.51 487.757 4525.5 485Z" fill="#765604"/>
</svg>
