<svg width="17" height="17" viewBox="0 0 17 17" fill="none" xmlns="http://www.w3.org/2000/svg">
<path d="M16.5024 14.493L13.3865 11.3777C13.2459 11.2371 13.0552 11.159 12.8552 11.159H12.3458C13.2084 10.056 13.7209 8.6686 13.7209 7.15937C13.7209 3.56909 10.8113 0.660004 7.22045 0.660004C3.62956 0.660004 0.719971 3.56909 0.719971 7.15937C0.719971 10.7496 3.62956 13.6587 7.22045 13.6587C8.72993 13.6587 10.1175 13.1463 11.2207 12.2839V12.7932C11.2207 12.9932 11.2989 13.1838 11.4395 13.3244L14.5554 16.4397C14.8491 16.7334 15.3242 16.7334 15.6148 16.4397L16.4993 15.5554C16.793 15.2617 16.793 14.7867 16.5024 14.493ZM7.22045 11.159C5.01091 11.159 3.22015 9.37165 3.22015 7.15937C3.22015 4.95021 5.00778 3.15976 7.22045 3.15976C9.42998 3.15976 11.2207 4.94708 11.2207 7.15937C11.2207 9.36853 9.43311 11.159 7.22045 11.159Z" fill="#CBD0E1"/>
</svg>
